<mxfile host="65bd71144e">
    <diagram id="ISFHLl6uaf_WM5zOD_Rl" name="Page-1">
        <mxGraphModel dx="5382" dy="2016" grid="1" gridSize="10" guides="1" tooltips="1" connect="1" arrows="1" fold="1" page="1" pageScale="1" pageWidth="850" pageHeight="1100" math="0" shadow="0">
            <root>
                <mxCell id="0"/>
                <mxCell id="1" parent="0"/>
                <mxCell id="2" value="" style="rounded=0;whiteSpace=wrap;html=1;" parent="1" vertex="1">
                    <mxGeometry x="20" y="1200" width="1920" height="1080" as="geometry"/>
                </mxCell>
                <mxCell id="3" value="" style="rounded=0;whiteSpace=wrap;html=1;fillColor=#d5e8d4;strokeColor=#82b366;" parent="1" vertex="1">
                    <mxGeometry x="20" y="1200" width="1920" height="300" as="geometry"/>
                </mxCell>
                <mxCell id="4" value="" style="rounded=0;whiteSpace=wrap;html=1;fillColor=#d5e8d4;strokeColor=#82b366;" parent="1" vertex="1">
                    <mxGeometry x="20" y="2080" width="1920" height="200" as="geometry"/>
                </mxCell>
                <mxCell id="5" value="&lt;font style=&quot;font-size: 30px;&quot;&gt;Search&lt;/font&gt;" style="rounded=1;whiteSpace=wrap;html=1;" parent="1" vertex="1">
                    <mxGeometry x="545" y="1305" width="650" height="90" as="geometry"/>
                </mxCell>
                <mxCell id="6" value="&lt;font style=&quot;font-size: 30px;&quot;&gt;Submit&lt;/font&gt;" style="rounded=1;whiteSpace=wrap;html=1;fillColor=#dae8fc;strokeColor=#6c8ebf;strokeWidth=3;" parent="1" vertex="1">
                    <mxGeometry x="1215" y="1305" width="200" height="90" as="geometry"/>
                </mxCell>
                <mxCell id="7" value="&lt;font style=&quot;font-size: 20px;&quot;&gt;login&lt;/font&gt;" style="rounded=1;whiteSpace=wrap;html=1;fillColor=#dae8fc;strokeColor=#6c8ebf;strokeWidth=3;" parent="1" vertex="1">
                    <mxGeometry x="1690" y="1240" width="90" height="50" as="geometry"/>
                </mxCell>
                <mxCell id="8" value="&lt;font style=&quot;font-size: 20px;&quot;&gt;sign up&lt;/font&gt;" style="rounded=1;whiteSpace=wrap;html=1;fillColor=#dae8fc;strokeColor=#6c8ebf;strokeWidth=3;" parent="1" vertex="1">
                    <mxGeometry x="1800" y="1240" width="90" height="50" as="geometry"/>
                </mxCell>
                <mxCell id="9" value="" style="endArrow=classic;html=1;" parent="1" target="10" edge="1">
                    <mxGeometry width="50" height="50" relative="1" as="geometry">
                        <mxPoint x="1918" y="1210" as="sourcePoint"/>
                        <mxPoint x="1968" y="1160" as="targetPoint"/>
                    </mxGeometry>
                </mxCell>
                <mxCell id="10" value="Change language" style="text;html=1;align=center;verticalAlign=middle;whiteSpace=wrap;rounded=0;" parent="1" vertex="1">
                    <mxGeometry x="1910" y="1160" width="98" height="20" as="geometry"/>
                </mxCell>
                <mxCell id="11" value="" style="sketch=0;html=1;aspect=fixed;strokeColor=none;shadow=0;fillColor=#3B8DF1;verticalAlign=top;labelPosition=center;verticalLabelPosition=bottom;shape=mxgraph.gcp2.globe_world" parent="1" vertex="1">
                    <mxGeometry x="1900" y="1210" width="25.79" height="24.5" as="geometry"/>
                </mxCell>
                <mxCell id="12" value="&lt;font style=&quot;font-size: 40px;&quot;&gt;All movies&lt;/font&gt;" style="rounded=1;whiteSpace=wrap;html=1;fillColor=#fff2cc;strokeColor=#d6b656;strokeWidth=3;" parent="1" vertex="1">
                    <mxGeometry x="20" y="1500" width="640" height="100" as="geometry"/>
                </mxCell>
                <mxCell id="13" value="&lt;font style=&quot;font-size: 40px;&quot;&gt;All series&lt;/font&gt;" style="rounded=1;whiteSpace=wrap;html=1;fillColor=#dae8fc;strokeColor=#6c8ebf;strokeWidth=3;" parent="1" vertex="1">
                    <mxGeometry x="660" y="1500" width="640" height="100" as="geometry"/>
                </mxCell>
                <mxCell id="14" value="&lt;font style=&quot;font-size: 40px;&quot;&gt;All actors&lt;/font&gt;" style="rounded=1;whiteSpace=wrap;html=1;fillColor=#dae8fc;strokeColor=#6c8ebf;strokeWidth=3;" parent="1" vertex="1">
                    <mxGeometry x="1300" y="1500" width="640" height="100" as="geometry"/>
                </mxCell>
                <mxCell id="54" value="" style="dashed=0;outlineConnect=0;html=1;align=center;labelPosition=center;verticalLabelPosition=bottom;verticalAlign=top;shape=mxgraph.webicons.facebook;fillColor=#6294E4;gradientColor=#1A2665" parent="1" vertex="1">
                    <mxGeometry x="1815.79" y="2210" width="50" height="50" as="geometry"/>
                </mxCell>
                <mxCell id="55" value="" style="dashed=0;outlineConnect=0;html=1;align=center;labelPosition=center;verticalLabelPosition=bottom;verticalAlign=top;shape=mxgraph.weblogos.instagram;fillColor=#6FC0E4;gradientColor=#1E305B" parent="1" vertex="1">
                    <mxGeometry x="1755.79" y="2210" width="50" height="50" as="geometry"/>
                </mxCell>
                <mxCell id="56" value="" style="dashed=0;outlineConnect=0;html=1;align=center;labelPosition=center;verticalLabelPosition=bottom;verticalAlign=top;shape=mxgraph.webicons.twitter;fillColor=#49EAF7;strokeColor=none;gradientColor=#137BD0;" parent="1" vertex="1">
                    <mxGeometry x="1875.79" y="2210" width="50" height="50" as="geometry"/>
                </mxCell>
                <mxCell id="57" value="copyrights" style="rounded=0;whiteSpace=wrap;html=1;" parent="1" vertex="1">
                    <mxGeometry x="877.5" y="2212.5" width="205" height="47.5" as="geometry"/>
                </mxCell>
                <mxCell id="58" value="" style="strokeColor=#999999;verticalLabelPosition=bottom;shadow=0;dashed=0;verticalAlign=top;strokeWidth=2;html=1;shape=mxgraph.mockup.misc.copyrightIcon;" parent="1" vertex="1">
                    <mxGeometry x="897.5" y="2223.75" width="25" height="25" as="geometry"/>
                </mxCell>
                <mxCell id="59" value="about" style="rounded=0;whiteSpace=wrap;html=1;" parent="1" vertex="1">
                    <mxGeometry x="680" y="2120" width="600" height="60" as="geometry"/>
                </mxCell>
                <mxCell id="60" value="&lt;font style=&quot;font-size: 16px;&quot;&gt;Index (page d&#39;accueil) on computer&lt;/font&gt;" style="text;html=1;align=center;verticalAlign=middle;resizable=0;points=[];autosize=1;strokeColor=none;fillColor=none;" parent="1" vertex="1">
                    <mxGeometry x="20" y="1170" width="270" height="30" as="geometry"/>
                </mxCell>
                <mxCell id="80" style="edgeStyle=none;html=1;entryX=1;entryY=0.5;entryDx=0;entryDy=0;" edge="1" parent="1" source="79" target="117">
                    <mxGeometry relative="1" as="geometry">
                        <mxPoint x="-120" y="1670" as="targetPoint"/>
                    </mxGeometry>
                </mxCell>
                <mxCell id="79" value="&lt;font style=&quot;font-size: 30px;&quot;&gt;Filtrer&lt;/font&gt;" style="rounded=0;whiteSpace=wrap;html=1;fillColor=#f5f5f5;strokeColor=#666666;fontColor=#333333;" parent="1" vertex="1">
                    <mxGeometry x="160" y="1640" width="120" height="60" as="geometry"/>
                </mxCell>
                <mxCell id="123" value="" style="group" vertex="1" connectable="0" parent="1">
                    <mxGeometry x="-310" y="1570" width="240" height="200" as="geometry"/>
                </mxCell>
                <mxCell id="112" value="Gender" style="rounded=0;whiteSpace=wrap;html=1;fillColor=#fff2cc;strokeColor=#d6b656;" vertex="1" parent="123">
                    <mxGeometry width="80" height="40" as="geometry"/>
                </mxCell>
                <mxCell id="113" value="Duration" style="rounded=0;whiteSpace=wrap;html=1;fillColor=#dae8fc;strokeColor=#6c8ebf;" vertex="1" parent="123">
                    <mxGeometry x="80" width="80" height="40" as="geometry"/>
                </mxCell>
                <mxCell id="114" value="..." style="rounded=0;whiteSpace=wrap;html=1;fillColor=#dae8fc;strokeColor=#6c8ebf;" vertex="1" parent="123">
                    <mxGeometry x="160" width="80" height="40" as="geometry"/>
                </mxCell>
                <mxCell id="115" value="" style="rounded=0;whiteSpace=wrap;html=1;" vertex="1" parent="123">
                    <mxGeometry y="40" width="240" height="160" as="geometry"/>
                </mxCell>
                <mxCell id="116" value="Action" style="text;html=1;align=center;verticalAlign=middle;whiteSpace=wrap;rounded=0;points=[[0,0,0,0,0],[0,0.25,0,0,0],[0,0.5,0,0,0],[0,0.75,0,0,0],[0,1,0,0,0],[0.12,1,0,0,0],[0.25,0,0,0,0],[0.25,1,0,0,0],[0.5,0,0,0,0],[0.5,1,0,0,0],[0.75,0,0,0,0],[0.75,1,0,0,0],[0.88,1,0,0,0],[1,0,0,0,0],[1,0.25,0,0,0],[1,0.5,0,0,0],[1,0.75,0,0,0],[1,1,0,0,0]];" vertex="1" parent="123">
                    <mxGeometry y="40" width="240" height="40" as="geometry"/>
                </mxCell>
                <mxCell id="117" value="Fantastique" style="text;html=1;align=center;verticalAlign=middle;whiteSpace=wrap;rounded=0;points=[[0,0,0,0,0],[0,0.25,0,0,0],[0,0.5,0,0,0],[0,0.75,0,0,0],[0,1,0,0,0],[0.13,1,0,0,0],[0.25,0,0,0,0],[0.25,1,0,0,0],[0.5,0,0,0,0],[0.5,1,0,0,0],[0.75,0,0,0,0],[0.75,1,0,0,0],[0.88,1,0,0,0],[1,0,0,0,0],[1,0.25,0,0,0],[1,0.5,0,0,0],[1,0.75,0,0,0],[1,1,0,0,0]];" vertex="1" parent="123">
                    <mxGeometry y="80" width="240" height="40" as="geometry"/>
                </mxCell>
                <mxCell id="118" value="..." style="text;html=1;align=center;verticalAlign=middle;whiteSpace=wrap;rounded=0;" vertex="1" parent="123">
                    <mxGeometry y="160" width="240" height="40" as="geometry"/>
                </mxCell>
                <mxCell id="119" value="Horror" style="text;html=1;align=center;verticalAlign=middle;whiteSpace=wrap;rounded=0;points=[[0,0,0,0,0],[0,0.25,0,0,0],[0,0.5,0,0,0],[0,0.75,0,0,0],[0,1,0,0,0],[0.13,1,0,0,0],[0.25,0,0,0,0],[0.25,1,0,0,0],[0.5,0,0,0,0],[0.5,1,0,0,0],[0.75,0,0,0,0],[0.75,1,0,0,0],[0.88,1,0,0,0],[1,0,0,0,0],[1,0.25,0,0,0],[1,0.5,0,0,0],[1,0.75,0,0,0],[1,1,0,0,0]];" vertex="1" parent="123">
                    <mxGeometry y="120" width="240" height="40" as="geometry"/>
                </mxCell>
                <mxCell id="120" value="" style="endArrow=none;html=1;exitX=0.12;exitY=1;exitDx=0;exitDy=0;entryX=0.88;entryY=1;entryDx=0;entryDy=0;entryPerimeter=0;exitPerimeter=0;" edge="1" parent="123" source="116" target="116">
                    <mxGeometry width="50" height="50" relative="1" as="geometry">
                        <mxPoint x="130" y="130" as="sourcePoint"/>
                        <mxPoint x="180" y="80" as="targetPoint"/>
                    </mxGeometry>
                </mxCell>
                <mxCell id="121" value="" style="endArrow=none;html=1;exitX=0.13;exitY=1;exitDx=0;exitDy=0;entryX=0.88;entryY=1;entryDx=0;entryDy=0;exitPerimeter=0;entryPerimeter=0;" edge="1" parent="123" source="117" target="117">
                    <mxGeometry width="50" height="50" relative="1" as="geometry">
                        <mxPoint x="70" y="90" as="sourcePoint"/>
                        <mxPoint x="190" y="90" as="targetPoint"/>
                    </mxGeometry>
                </mxCell>
                <mxCell id="122" value="" style="endArrow=none;html=1;exitX=0.13;exitY=1;exitDx=0;exitDy=0;entryX=0.88;entryY=1;entryDx=0;entryDy=0;entryPerimeter=0;exitPerimeter=0;" edge="1" parent="123" source="119" target="119">
                    <mxGeometry width="50" height="50" relative="1" as="geometry">
                        <mxPoint x="70" y="130" as="sourcePoint"/>
                        <mxPoint x="190" y="130" as="targetPoint"/>
                    </mxGeometry>
                </mxCell>
                <mxCell id="133" value="" style="group" vertex="1" connectable="0" parent="1">
                    <mxGeometry x="145" y="1710" width="100" height="120" as="geometry"/>
                </mxCell>
                <mxCell id="125" value="" style="sketch=0;outlineConnect=0;fontColor=#232F3E;gradientColor=none;fillColor=#ED7100;strokeColor=none;dashed=0;verticalLabelPosition=bottom;verticalAlign=top;align=center;html=1;fontSize=12;fontStyle=0;aspect=fixed;pointerEvents=1;shape=mxgraph.aws4.container_registry_image;" vertex="1" parent="133">
                    <mxGeometry x="10" y="20" width="80" height="80" as="geometry"/>
                </mxCell>
                <mxCell id="126" value="Name" style="text;html=1;align=center;verticalAlign=middle;whiteSpace=wrap;rounded=0;" vertex="1" parent="133">
                    <mxGeometry x="10" width="80" height="20" as="geometry"/>
                </mxCell>
                <mxCell id="127" value="Duration" style="text;html=1;align=center;verticalAlign=middle;whiteSpace=wrap;rounded=0;" vertex="1" parent="133">
                    <mxGeometry y="100" width="40" height="20" as="geometry"/>
                </mxCell>
                <mxCell id="128" value="" style="verticalLabelPosition=bottom;verticalAlign=top;html=1;shape=mxgraph.basic.star;" vertex="1" parent="133">
                    <mxGeometry x="50" y="105" width="10" height="10" as="geometry"/>
                </mxCell>
                <mxCell id="129" value="" style="verticalLabelPosition=bottom;verticalAlign=top;html=1;shape=mxgraph.basic.star;" vertex="1" parent="133">
                    <mxGeometry x="60" y="105" width="10" height="10" as="geometry"/>
                </mxCell>
                <mxCell id="130" value="" style="verticalLabelPosition=bottom;verticalAlign=top;html=1;shape=mxgraph.basic.star;" vertex="1" parent="133">
                    <mxGeometry x="70" y="105" width="10" height="10" as="geometry"/>
                </mxCell>
                <mxCell id="131" value="" style="verticalLabelPosition=bottom;verticalAlign=top;html=1;shape=mxgraph.basic.star;" vertex="1" parent="133">
                    <mxGeometry x="80" y="105" width="10" height="10" as="geometry"/>
                </mxCell>
                <mxCell id="132" value="" style="verticalLabelPosition=bottom;verticalAlign=top;html=1;shape=mxgraph.basic.star;" vertex="1" parent="133">
                    <mxGeometry x="90" y="105" width="10" height="10" as="geometry"/>
                </mxCell>
                <mxCell id="134" value="" style="group" vertex="1" connectable="0" parent="1">
                    <mxGeometry x="145" y="1830" width="100" height="120" as="geometry"/>
                </mxCell>
                <mxCell id="135" value="" style="sketch=0;outlineConnect=0;fontColor=#232F3E;gradientColor=none;fillColor=#ED7100;strokeColor=none;dashed=0;verticalLabelPosition=bottom;verticalAlign=top;align=center;html=1;fontSize=12;fontStyle=0;aspect=fixed;pointerEvents=1;shape=mxgraph.aws4.container_registry_image;" vertex="1" parent="134">
                    <mxGeometry x="10" y="20" width="80" height="80" as="geometry"/>
                </mxCell>
                <mxCell id="136" value="Name" style="text;html=1;align=center;verticalAlign=middle;whiteSpace=wrap;rounded=0;" vertex="1" parent="134">
                    <mxGeometry x="10" width="80" height="20" as="geometry"/>
                </mxCell>
                <mxCell id="137" value="Duration" style="text;html=1;align=center;verticalAlign=middle;whiteSpace=wrap;rounded=0;" vertex="1" parent="134">
                    <mxGeometry y="100" width="40" height="20" as="geometry"/>
                </mxCell>
                <mxCell id="138" value="" style="verticalLabelPosition=bottom;verticalAlign=top;html=1;shape=mxgraph.basic.star;" vertex="1" parent="134">
                    <mxGeometry x="50" y="105" width="10" height="10" as="geometry"/>
                </mxCell>
                <mxCell id="139" value="" style="verticalLabelPosition=bottom;verticalAlign=top;html=1;shape=mxgraph.basic.star;" vertex="1" parent="134">
                    <mxGeometry x="60" y="105" width="10" height="10" as="geometry"/>
                </mxCell>
                <mxCell id="140" value="" style="verticalLabelPosition=bottom;verticalAlign=top;html=1;shape=mxgraph.basic.star;" vertex="1" parent="134">
                    <mxGeometry x="70" y="105" width="10" height="10" as="geometry"/>
                </mxCell>
                <mxCell id="141" value="" style="verticalLabelPosition=bottom;verticalAlign=top;html=1;shape=mxgraph.basic.star;" vertex="1" parent="134">
                    <mxGeometry x="80" y="105" width="10" height="10" as="geometry"/>
                </mxCell>
                <mxCell id="142" value="" style="verticalLabelPosition=bottom;verticalAlign=top;html=1;shape=mxgraph.basic.star;" vertex="1" parent="134">
                    <mxGeometry x="90" y="105" width="10" height="10" as="geometry"/>
                </mxCell>
                <mxCell id="143" value="" style="group" vertex="1" connectable="0" parent="1">
                    <mxGeometry x="145" y="1950" width="100" height="120" as="geometry"/>
                </mxCell>
                <mxCell id="144" value="" style="sketch=0;outlineConnect=0;fontColor=#232F3E;gradientColor=none;fillColor=#ED7100;strokeColor=none;dashed=0;verticalLabelPosition=bottom;verticalAlign=top;align=center;html=1;fontSize=12;fontStyle=0;aspect=fixed;pointerEvents=1;shape=mxgraph.aws4.container_registry_image;" vertex="1" parent="143">
                    <mxGeometry x="10" y="20" width="80" height="80" as="geometry"/>
                </mxCell>
                <mxCell id="145" value="Name" style="text;html=1;align=center;verticalAlign=middle;whiteSpace=wrap;rounded=0;" vertex="1" parent="143">
                    <mxGeometry x="10" width="80" height="20" as="geometry"/>
                </mxCell>
                <mxCell id="146" value="Duration" style="text;html=1;align=center;verticalAlign=middle;whiteSpace=wrap;rounded=0;" vertex="1" parent="143">
                    <mxGeometry y="100" width="40" height="20" as="geometry"/>
                </mxCell>
                <mxCell id="147" value="" style="verticalLabelPosition=bottom;verticalAlign=top;html=1;shape=mxgraph.basic.star;" vertex="1" parent="143">
                    <mxGeometry x="50" y="105" width="10" height="10" as="geometry"/>
                </mxCell>
                <mxCell id="148" value="" style="verticalLabelPosition=bottom;verticalAlign=top;html=1;shape=mxgraph.basic.star;" vertex="1" parent="143">
                    <mxGeometry x="60" y="105" width="10" height="10" as="geometry"/>
                </mxCell>
                <mxCell id="149" value="" style="verticalLabelPosition=bottom;verticalAlign=top;html=1;shape=mxgraph.basic.star;" vertex="1" parent="143">
                    <mxGeometry x="70" y="105" width="10" height="10" as="geometry"/>
                </mxCell>
                <mxCell id="150" value="" style="verticalLabelPosition=bottom;verticalAlign=top;html=1;shape=mxgraph.basic.star;" vertex="1" parent="143">
                    <mxGeometry x="80" y="105" width="10" height="10" as="geometry"/>
                </mxCell>
                <mxCell id="151" value="" style="verticalLabelPosition=bottom;verticalAlign=top;html=1;shape=mxgraph.basic.star;" vertex="1" parent="143">
                    <mxGeometry x="90" y="105" width="10" height="10" as="geometry"/>
                </mxCell>
                <mxCell id="179" value="" style="group" vertex="1" connectable="0" parent="1">
                    <mxGeometry x="260" y="1950" width="100" height="120" as="geometry"/>
                </mxCell>
                <mxCell id="180" value="" style="sketch=0;outlineConnect=0;fontColor=#232F3E;gradientColor=none;fillColor=#ED7100;strokeColor=none;dashed=0;verticalLabelPosition=bottom;verticalAlign=top;align=center;html=1;fontSize=12;fontStyle=0;aspect=fixed;pointerEvents=1;shape=mxgraph.aws4.container_registry_image;" vertex="1" parent="179">
                    <mxGeometry x="10" y="20" width="80" height="80" as="geometry"/>
                </mxCell>
                <mxCell id="181" value="Name" style="text;html=1;align=center;verticalAlign=middle;whiteSpace=wrap;rounded=0;" vertex="1" parent="179">
                    <mxGeometry x="10" width="80" height="20" as="geometry"/>
                </mxCell>
                <mxCell id="182" value="Duration" style="text;html=1;align=center;verticalAlign=middle;whiteSpace=wrap;rounded=0;" vertex="1" parent="179">
                    <mxGeometry y="100" width="40" height="20" as="geometry"/>
                </mxCell>
                <mxCell id="183" value="" style="verticalLabelPosition=bottom;verticalAlign=top;html=1;shape=mxgraph.basic.star;" vertex="1" parent="179">
                    <mxGeometry x="50" y="105" width="10" height="10" as="geometry"/>
                </mxCell>
                <mxCell id="184" value="" style="verticalLabelPosition=bottom;verticalAlign=top;html=1;shape=mxgraph.basic.star;" vertex="1" parent="179">
                    <mxGeometry x="60" y="105" width="10" height="10" as="geometry"/>
                </mxCell>
                <mxCell id="185" value="" style="verticalLabelPosition=bottom;verticalAlign=top;html=1;shape=mxgraph.basic.star;" vertex="1" parent="179">
                    <mxGeometry x="70" y="105" width="10" height="10" as="geometry"/>
                </mxCell>
                <mxCell id="186" value="" style="verticalLabelPosition=bottom;verticalAlign=top;html=1;shape=mxgraph.basic.star;" vertex="1" parent="179">
                    <mxGeometry x="80" y="105" width="10" height="10" as="geometry"/>
                </mxCell>
                <mxCell id="187" value="" style="verticalLabelPosition=bottom;verticalAlign=top;html=1;shape=mxgraph.basic.star;" vertex="1" parent="179">
                    <mxGeometry x="90" y="105" width="10" height="10" as="geometry"/>
                </mxCell>
                <mxCell id="188" value="" style="group" vertex="1" connectable="0" parent="1">
                    <mxGeometry x="260" y="1830" width="100" height="120" as="geometry"/>
                </mxCell>
                <mxCell id="189" value="" style="sketch=0;outlineConnect=0;fontColor=#232F3E;gradientColor=none;fillColor=#ED7100;strokeColor=none;dashed=0;verticalLabelPosition=bottom;verticalAlign=top;align=center;html=1;fontSize=12;fontStyle=0;aspect=fixed;pointerEvents=1;shape=mxgraph.aws4.container_registry_image;" vertex="1" parent="188">
                    <mxGeometry x="10" y="20" width="80" height="80" as="geometry"/>
                </mxCell>
                <mxCell id="190" value="Name" style="text;html=1;align=center;verticalAlign=middle;whiteSpace=wrap;rounded=0;" vertex="1" parent="188">
                    <mxGeometry x="10" width="80" height="20" as="geometry"/>
                </mxCell>
                <mxCell id="191" value="Duration" style="text;html=1;align=center;verticalAlign=middle;whiteSpace=wrap;rounded=0;" vertex="1" parent="188">
                    <mxGeometry y="100" width="40" height="20" as="geometry"/>
                </mxCell>
                <mxCell id="192" value="" style="verticalLabelPosition=bottom;verticalAlign=top;html=1;shape=mxgraph.basic.star;" vertex="1" parent="188">
                    <mxGeometry x="50" y="105" width="10" height="10" as="geometry"/>
                </mxCell>
                <mxCell id="193" value="" style="verticalLabelPosition=bottom;verticalAlign=top;html=1;shape=mxgraph.basic.star;" vertex="1" parent="188">
                    <mxGeometry x="60" y="105" width="10" height="10" as="geometry"/>
                </mxCell>
                <mxCell id="194" value="" style="verticalLabelPosition=bottom;verticalAlign=top;html=1;shape=mxgraph.basic.star;" vertex="1" parent="188">
                    <mxGeometry x="70" y="105" width="10" height="10" as="geometry"/>
                </mxCell>
                <mxCell id="195" value="" style="verticalLabelPosition=bottom;verticalAlign=top;html=1;shape=mxgraph.basic.star;" vertex="1" parent="188">
                    <mxGeometry x="80" y="105" width="10" height="10" as="geometry"/>
                </mxCell>
                <mxCell id="196" value="" style="verticalLabelPosition=bottom;verticalAlign=top;html=1;shape=mxgraph.basic.star;" vertex="1" parent="188">
                    <mxGeometry x="90" y="105" width="10" height="10" as="geometry"/>
                </mxCell>
                <mxCell id="197" value="" style="group" vertex="1" connectable="0" parent="1">
                    <mxGeometry x="260" y="1710" width="100" height="120" as="geometry"/>
                </mxCell>
                <mxCell id="198" value="" style="sketch=0;outlineConnect=0;fontColor=#232F3E;gradientColor=none;fillColor=#ED7100;strokeColor=none;dashed=0;verticalLabelPosition=bottom;verticalAlign=top;align=center;html=1;fontSize=12;fontStyle=0;aspect=fixed;pointerEvents=1;shape=mxgraph.aws4.container_registry_image;" vertex="1" parent="197">
                    <mxGeometry x="10" y="20" width="80" height="80" as="geometry"/>
                </mxCell>
                <mxCell id="199" value="Name" style="text;html=1;align=center;verticalAlign=middle;whiteSpace=wrap;rounded=0;" vertex="1" parent="197">
                    <mxGeometry x="10" width="80" height="20" as="geometry"/>
                </mxCell>
                <mxCell id="200" value="Duration" style="text;html=1;align=center;verticalAlign=middle;whiteSpace=wrap;rounded=0;" vertex="1" parent="197">
                    <mxGeometry y="100" width="40" height="20" as="geometry"/>
                </mxCell>
                <mxCell id="201" value="" style="verticalLabelPosition=bottom;verticalAlign=top;html=1;shape=mxgraph.basic.star;" vertex="1" parent="197">
                    <mxGeometry x="50" y="105" width="10" height="10" as="geometry"/>
                </mxCell>
                <mxCell id="202" value="" style="verticalLabelPosition=bottom;verticalAlign=top;html=1;shape=mxgraph.basic.star;" vertex="1" parent="197">
                    <mxGeometry x="60" y="105" width="10" height="10" as="geometry"/>
                </mxCell>
                <mxCell id="203" value="" style="verticalLabelPosition=bottom;verticalAlign=top;html=1;shape=mxgraph.basic.star;" vertex="1" parent="197">
                    <mxGeometry x="70" y="105" width="10" height="10" as="geometry"/>
                </mxCell>
                <mxCell id="204" value="" style="verticalLabelPosition=bottom;verticalAlign=top;html=1;shape=mxgraph.basic.star;" vertex="1" parent="197">
                    <mxGeometry x="80" y="105" width="10" height="10" as="geometry"/>
                </mxCell>
                <mxCell id="205" value="" style="verticalLabelPosition=bottom;verticalAlign=top;html=1;shape=mxgraph.basic.star;" vertex="1" parent="197">
                    <mxGeometry x="90" y="105" width="10" height="10" as="geometry"/>
                </mxCell>
                <mxCell id="314" value="" style="group" vertex="1" connectable="0" parent="1">
                    <mxGeometry x="490" y="1950" width="100" height="120" as="geometry"/>
                </mxCell>
                <mxCell id="315" value="" style="sketch=0;outlineConnect=0;fontColor=#232F3E;gradientColor=none;fillColor=#ED7100;strokeColor=none;dashed=0;verticalLabelPosition=bottom;verticalAlign=top;align=center;html=1;fontSize=12;fontStyle=0;aspect=fixed;pointerEvents=1;shape=mxgraph.aws4.container_registry_image;" vertex="1" parent="314">
                    <mxGeometry x="10" y="20" width="80" height="80" as="geometry"/>
                </mxCell>
                <mxCell id="316" value="Name" style="text;html=1;align=center;verticalAlign=middle;whiteSpace=wrap;rounded=0;" vertex="1" parent="314">
                    <mxGeometry x="10" width="80" height="20" as="geometry"/>
                </mxCell>
                <mxCell id="317" value="Duration" style="text;html=1;align=center;verticalAlign=middle;whiteSpace=wrap;rounded=0;" vertex="1" parent="314">
                    <mxGeometry y="100" width="40" height="20" as="geometry"/>
                </mxCell>
                <mxCell id="318" value="" style="verticalLabelPosition=bottom;verticalAlign=top;html=1;shape=mxgraph.basic.star;" vertex="1" parent="314">
                    <mxGeometry x="50" y="105" width="10" height="10" as="geometry"/>
                </mxCell>
                <mxCell id="319" value="" style="verticalLabelPosition=bottom;verticalAlign=top;html=1;shape=mxgraph.basic.star;" vertex="1" parent="314">
                    <mxGeometry x="60" y="105" width="10" height="10" as="geometry"/>
                </mxCell>
                <mxCell id="320" value="" style="verticalLabelPosition=bottom;verticalAlign=top;html=1;shape=mxgraph.basic.star;" vertex="1" parent="314">
                    <mxGeometry x="70" y="105" width="10" height="10" as="geometry"/>
                </mxCell>
                <mxCell id="321" value="" style="verticalLabelPosition=bottom;verticalAlign=top;html=1;shape=mxgraph.basic.star;" vertex="1" parent="314">
                    <mxGeometry x="80" y="105" width="10" height="10" as="geometry"/>
                </mxCell>
                <mxCell id="322" value="" style="verticalLabelPosition=bottom;verticalAlign=top;html=1;shape=mxgraph.basic.star;" vertex="1" parent="314">
                    <mxGeometry x="90" y="105" width="10" height="10" as="geometry"/>
                </mxCell>
                <mxCell id="323" value="" style="group" vertex="1" connectable="0" parent="1">
                    <mxGeometry x="375" y="1950" width="100" height="120" as="geometry"/>
                </mxCell>
                <mxCell id="324" value="" style="sketch=0;outlineConnect=0;fontColor=#232F3E;gradientColor=none;fillColor=#ED7100;strokeColor=none;dashed=0;verticalLabelPosition=bottom;verticalAlign=top;align=center;html=1;fontSize=12;fontStyle=0;aspect=fixed;pointerEvents=1;shape=mxgraph.aws4.container_registry_image;" vertex="1" parent="323">
                    <mxGeometry x="10" y="20" width="80" height="80" as="geometry"/>
                </mxCell>
                <mxCell id="325" value="Name" style="text;html=1;align=center;verticalAlign=middle;whiteSpace=wrap;rounded=0;" vertex="1" parent="323">
                    <mxGeometry x="10" width="80" height="20" as="geometry"/>
                </mxCell>
                <mxCell id="326" value="Duration" style="text;html=1;align=center;verticalAlign=middle;whiteSpace=wrap;rounded=0;" vertex="1" parent="323">
                    <mxGeometry y="100" width="40" height="20" as="geometry"/>
                </mxCell>
                <mxCell id="327" value="" style="verticalLabelPosition=bottom;verticalAlign=top;html=1;shape=mxgraph.basic.star;" vertex="1" parent="323">
                    <mxGeometry x="50" y="105" width="10" height="10" as="geometry"/>
                </mxCell>
                <mxCell id="328" value="" style="verticalLabelPosition=bottom;verticalAlign=top;html=1;shape=mxgraph.basic.star;" vertex="1" parent="323">
                    <mxGeometry x="60" y="105" width="10" height="10" as="geometry"/>
                </mxCell>
                <mxCell id="329" value="" style="verticalLabelPosition=bottom;verticalAlign=top;html=1;shape=mxgraph.basic.star;" vertex="1" parent="323">
                    <mxGeometry x="70" y="105" width="10" height="10" as="geometry"/>
                </mxCell>
                <mxCell id="330" value="" style="verticalLabelPosition=bottom;verticalAlign=top;html=1;shape=mxgraph.basic.star;" vertex="1" parent="323">
                    <mxGeometry x="80" y="105" width="10" height="10" as="geometry"/>
                </mxCell>
                <mxCell id="331" value="" style="verticalLabelPosition=bottom;verticalAlign=top;html=1;shape=mxgraph.basic.star;" vertex="1" parent="323">
                    <mxGeometry x="90" y="105" width="10" height="10" as="geometry"/>
                </mxCell>
                <mxCell id="332" value="" style="group" vertex="1" connectable="0" parent="1">
                    <mxGeometry x="375" y="1830" width="100" height="120" as="geometry"/>
                </mxCell>
                <mxCell id="333" value="" style="sketch=0;outlineConnect=0;fontColor=#232F3E;gradientColor=none;fillColor=#ED7100;strokeColor=none;dashed=0;verticalLabelPosition=bottom;verticalAlign=top;align=center;html=1;fontSize=12;fontStyle=0;aspect=fixed;pointerEvents=1;shape=mxgraph.aws4.container_registry_image;" vertex="1" parent="332">
                    <mxGeometry x="10" y="20" width="80" height="80" as="geometry"/>
                </mxCell>
                <mxCell id="334" value="Name" style="text;html=1;align=center;verticalAlign=middle;whiteSpace=wrap;rounded=0;" vertex="1" parent="332">
                    <mxGeometry x="10" width="80" height="20" as="geometry"/>
                </mxCell>
                <mxCell id="335" value="Duration" style="text;html=1;align=center;verticalAlign=middle;whiteSpace=wrap;rounded=0;" vertex="1" parent="332">
                    <mxGeometry y="100" width="40" height="20" as="geometry"/>
                </mxCell>
                <mxCell id="336" value="" style="verticalLabelPosition=bottom;verticalAlign=top;html=1;shape=mxgraph.basic.star;" vertex="1" parent="332">
                    <mxGeometry x="50" y="105" width="10" height="10" as="geometry"/>
                </mxCell>
                <mxCell id="337" value="" style="verticalLabelPosition=bottom;verticalAlign=top;html=1;shape=mxgraph.basic.star;" vertex="1" parent="332">
                    <mxGeometry x="60" y="105" width="10" height="10" as="geometry"/>
                </mxCell>
                <mxCell id="338" value="" style="verticalLabelPosition=bottom;verticalAlign=top;html=1;shape=mxgraph.basic.star;" vertex="1" parent="332">
                    <mxGeometry x="70" y="105" width="10" height="10" as="geometry"/>
                </mxCell>
                <mxCell id="339" value="" style="verticalLabelPosition=bottom;verticalAlign=top;html=1;shape=mxgraph.basic.star;" vertex="1" parent="332">
                    <mxGeometry x="80" y="105" width="10" height="10" as="geometry"/>
                </mxCell>
                <mxCell id="340" value="" style="verticalLabelPosition=bottom;verticalAlign=top;html=1;shape=mxgraph.basic.star;" vertex="1" parent="332">
                    <mxGeometry x="90" y="105" width="10" height="10" as="geometry"/>
                </mxCell>
                <mxCell id="341" value="" style="group" vertex="1" connectable="0" parent="1">
                    <mxGeometry x="375" y="1710" width="100" height="120" as="geometry"/>
                </mxCell>
                <mxCell id="342" value="" style="sketch=0;outlineConnect=0;fontColor=#232F3E;gradientColor=none;fillColor=#ED7100;strokeColor=none;dashed=0;verticalLabelPosition=bottom;verticalAlign=top;align=center;html=1;fontSize=12;fontStyle=0;aspect=fixed;pointerEvents=1;shape=mxgraph.aws4.container_registry_image;" vertex="1" parent="341">
                    <mxGeometry x="10" y="20" width="80" height="80" as="geometry"/>
                </mxCell>
                <mxCell id="343" value="Name" style="text;html=1;align=center;verticalAlign=middle;whiteSpace=wrap;rounded=0;" vertex="1" parent="341">
                    <mxGeometry x="10" width="80" height="20" as="geometry"/>
                </mxCell>
                <mxCell id="344" value="Duration" style="text;html=1;align=center;verticalAlign=middle;whiteSpace=wrap;rounded=0;" vertex="1" parent="341">
                    <mxGeometry y="100" width="40" height="20" as="geometry"/>
                </mxCell>
                <mxCell id="345" value="" style="verticalLabelPosition=bottom;verticalAlign=top;html=1;shape=mxgraph.basic.star;" vertex="1" parent="341">
                    <mxGeometry x="50" y="105" width="10" height="10" as="geometry"/>
                </mxCell>
                <mxCell id="346" value="" style="verticalLabelPosition=bottom;verticalAlign=top;html=1;shape=mxgraph.basic.star;" vertex="1" parent="341">
                    <mxGeometry x="60" y="105" width="10" height="10" as="geometry"/>
                </mxCell>
                <mxCell id="347" value="" style="verticalLabelPosition=bottom;verticalAlign=top;html=1;shape=mxgraph.basic.star;" vertex="1" parent="341">
                    <mxGeometry x="70" y="105" width="10" height="10" as="geometry"/>
                </mxCell>
                <mxCell id="348" value="" style="verticalLabelPosition=bottom;verticalAlign=top;html=1;shape=mxgraph.basic.star;" vertex="1" parent="341">
                    <mxGeometry x="80" y="105" width="10" height="10" as="geometry"/>
                </mxCell>
                <mxCell id="349" value="" style="verticalLabelPosition=bottom;verticalAlign=top;html=1;shape=mxgraph.basic.star;" vertex="1" parent="341">
                    <mxGeometry x="90" y="105" width="10" height="10" as="geometry"/>
                </mxCell>
                <mxCell id="350" value="" style="group" vertex="1" connectable="0" parent="1">
                    <mxGeometry x="490" y="1710" width="100" height="120" as="geometry"/>
                </mxCell>
                <mxCell id="351" value="" style="sketch=0;outlineConnect=0;fontColor=#232F3E;gradientColor=none;fillColor=#ED7100;strokeColor=none;dashed=0;verticalLabelPosition=bottom;verticalAlign=top;align=center;html=1;fontSize=12;fontStyle=0;aspect=fixed;pointerEvents=1;shape=mxgraph.aws4.container_registry_image;" vertex="1" parent="350">
                    <mxGeometry x="10" y="20" width="80" height="80" as="geometry"/>
                </mxCell>
                <mxCell id="352" value="Name" style="text;html=1;align=center;verticalAlign=middle;whiteSpace=wrap;rounded=0;" vertex="1" parent="350">
                    <mxGeometry x="10" width="80" height="20" as="geometry"/>
                </mxCell>
                <mxCell id="353" value="Duration" style="text;html=1;align=center;verticalAlign=middle;whiteSpace=wrap;rounded=0;" vertex="1" parent="350">
                    <mxGeometry y="100" width="40" height="20" as="geometry"/>
                </mxCell>
                <mxCell id="354" value="" style="verticalLabelPosition=bottom;verticalAlign=top;html=1;shape=mxgraph.basic.star;" vertex="1" parent="350">
                    <mxGeometry x="50" y="105" width="10" height="10" as="geometry"/>
                </mxCell>
                <mxCell id="355" value="" style="verticalLabelPosition=bottom;verticalAlign=top;html=1;shape=mxgraph.basic.star;" vertex="1" parent="350">
                    <mxGeometry x="60" y="105" width="10" height="10" as="geometry"/>
                </mxCell>
                <mxCell id="356" value="" style="verticalLabelPosition=bottom;verticalAlign=top;html=1;shape=mxgraph.basic.star;" vertex="1" parent="350">
                    <mxGeometry x="70" y="105" width="10" height="10" as="geometry"/>
                </mxCell>
                <mxCell id="357" value="" style="verticalLabelPosition=bottom;verticalAlign=top;html=1;shape=mxgraph.basic.star;" vertex="1" parent="350">
                    <mxGeometry x="80" y="105" width="10" height="10" as="geometry"/>
                </mxCell>
                <mxCell id="358" value="" style="verticalLabelPosition=bottom;verticalAlign=top;html=1;shape=mxgraph.basic.star;" vertex="1" parent="350">
                    <mxGeometry x="90" y="105" width="10" height="10" as="geometry"/>
                </mxCell>
                <mxCell id="359" value="" style="group" vertex="1" connectable="0" parent="1">
                    <mxGeometry x="490" y="1830" width="100" height="120" as="geometry"/>
                </mxCell>
                <mxCell id="360" value="" style="sketch=0;outlineConnect=0;fontColor=#232F3E;gradientColor=none;fillColor=#ED7100;strokeColor=none;dashed=0;verticalLabelPosition=bottom;verticalAlign=top;align=center;html=1;fontSize=12;fontStyle=0;aspect=fixed;pointerEvents=1;shape=mxgraph.aws4.container_registry_image;" vertex="1" parent="359">
                    <mxGeometry x="10" y="20" width="80" height="80" as="geometry"/>
                </mxCell>
                <mxCell id="361" value="Name" style="text;html=1;align=center;verticalAlign=middle;whiteSpace=wrap;rounded=0;" vertex="1" parent="359">
                    <mxGeometry x="10" width="80" height="20" as="geometry"/>
                </mxCell>
                <mxCell id="362" value="Duration" style="text;html=1;align=center;verticalAlign=middle;whiteSpace=wrap;rounded=0;" vertex="1" parent="359">
                    <mxGeometry y="100" width="40" height="20" as="geometry"/>
                </mxCell>
                <mxCell id="363" value="" style="verticalLabelPosition=bottom;verticalAlign=top;html=1;shape=mxgraph.basic.star;" vertex="1" parent="359">
                    <mxGeometry x="50" y="105" width="10" height="10" as="geometry"/>
                </mxCell>
                <mxCell id="364" value="" style="verticalLabelPosition=bottom;verticalAlign=top;html=1;shape=mxgraph.basic.star;" vertex="1" parent="359">
                    <mxGeometry x="60" y="105" width="10" height="10" as="geometry"/>
                </mxCell>
                <mxCell id="365" value="" style="verticalLabelPosition=bottom;verticalAlign=top;html=1;shape=mxgraph.basic.star;" vertex="1" parent="359">
                    <mxGeometry x="70" y="105" width="10" height="10" as="geometry"/>
                </mxCell>
                <mxCell id="366" value="" style="verticalLabelPosition=bottom;verticalAlign=top;html=1;shape=mxgraph.basic.star;" vertex="1" parent="359">
                    <mxGeometry x="80" y="105" width="10" height="10" as="geometry"/>
                </mxCell>
                <mxCell id="367" value="" style="verticalLabelPosition=bottom;verticalAlign=top;html=1;shape=mxgraph.basic.star;" vertex="1" parent="359">
                    <mxGeometry x="90" y="105" width="10" height="10" as="geometry"/>
                </mxCell>
                <mxCell id="368" value="" style="group" vertex="1" connectable="0" parent="1">
                    <mxGeometry x="950" y="1950" width="100" height="120" as="geometry"/>
                </mxCell>
                <mxCell id="369" value="" style="sketch=0;outlineConnect=0;fontColor=#232F3E;gradientColor=none;fillColor=#ED7100;strokeColor=none;dashed=0;verticalLabelPosition=bottom;verticalAlign=top;align=center;html=1;fontSize=12;fontStyle=0;aspect=fixed;pointerEvents=1;shape=mxgraph.aws4.container_registry_image;" vertex="1" parent="368">
                    <mxGeometry x="10" y="20" width="80" height="80" as="geometry"/>
                </mxCell>
                <mxCell id="370" value="Name" style="text;html=1;align=center;verticalAlign=middle;whiteSpace=wrap;rounded=0;" vertex="1" parent="368">
                    <mxGeometry x="10" width="80" height="20" as="geometry"/>
                </mxCell>
                <mxCell id="371" value="Duration" style="text;html=1;align=center;verticalAlign=middle;whiteSpace=wrap;rounded=0;" vertex="1" parent="368">
                    <mxGeometry y="100" width="40" height="20" as="geometry"/>
                </mxCell>
                <mxCell id="372" value="" style="verticalLabelPosition=bottom;verticalAlign=top;html=1;shape=mxgraph.basic.star;" vertex="1" parent="368">
                    <mxGeometry x="50" y="105" width="10" height="10" as="geometry"/>
                </mxCell>
                <mxCell id="373" value="" style="verticalLabelPosition=bottom;verticalAlign=top;html=1;shape=mxgraph.basic.star;" vertex="1" parent="368">
                    <mxGeometry x="60" y="105" width="10" height="10" as="geometry"/>
                </mxCell>
                <mxCell id="374" value="" style="verticalLabelPosition=bottom;verticalAlign=top;html=1;shape=mxgraph.basic.star;" vertex="1" parent="368">
                    <mxGeometry x="70" y="105" width="10" height="10" as="geometry"/>
                </mxCell>
                <mxCell id="375" value="" style="verticalLabelPosition=bottom;verticalAlign=top;html=1;shape=mxgraph.basic.star;" vertex="1" parent="368">
                    <mxGeometry x="80" y="105" width="10" height="10" as="geometry"/>
                </mxCell>
                <mxCell id="376" value="" style="verticalLabelPosition=bottom;verticalAlign=top;html=1;shape=mxgraph.basic.star;" vertex="1" parent="368">
                    <mxGeometry x="90" y="105" width="10" height="10" as="geometry"/>
                </mxCell>
                <mxCell id="377" value="" style="group" vertex="1" connectable="0" parent="1">
                    <mxGeometry x="835" y="1950" width="100" height="120" as="geometry"/>
                </mxCell>
                <mxCell id="378" value="" style="sketch=0;outlineConnect=0;fontColor=#232F3E;gradientColor=none;fillColor=#ED7100;strokeColor=none;dashed=0;verticalLabelPosition=bottom;verticalAlign=top;align=center;html=1;fontSize=12;fontStyle=0;aspect=fixed;pointerEvents=1;shape=mxgraph.aws4.container_registry_image;" vertex="1" parent="377">
                    <mxGeometry x="10" y="20" width="80" height="80" as="geometry"/>
                </mxCell>
                <mxCell id="379" value="Name" style="text;html=1;align=center;verticalAlign=middle;whiteSpace=wrap;rounded=0;" vertex="1" parent="377">
                    <mxGeometry x="10" width="80" height="20" as="geometry"/>
                </mxCell>
                <mxCell id="380" value="Duration" style="text;html=1;align=center;verticalAlign=middle;whiteSpace=wrap;rounded=0;" vertex="1" parent="377">
                    <mxGeometry y="100" width="40" height="20" as="geometry"/>
                </mxCell>
                <mxCell id="381" value="" style="verticalLabelPosition=bottom;verticalAlign=top;html=1;shape=mxgraph.basic.star;" vertex="1" parent="377">
                    <mxGeometry x="50" y="105" width="10" height="10" as="geometry"/>
                </mxCell>
                <mxCell id="382" value="" style="verticalLabelPosition=bottom;verticalAlign=top;html=1;shape=mxgraph.basic.star;" vertex="1" parent="377">
                    <mxGeometry x="60" y="105" width="10" height="10" as="geometry"/>
                </mxCell>
                <mxCell id="383" value="" style="verticalLabelPosition=bottom;verticalAlign=top;html=1;shape=mxgraph.basic.star;" vertex="1" parent="377">
                    <mxGeometry x="70" y="105" width="10" height="10" as="geometry"/>
                </mxCell>
                <mxCell id="384" value="" style="verticalLabelPosition=bottom;verticalAlign=top;html=1;shape=mxgraph.basic.star;" vertex="1" parent="377">
                    <mxGeometry x="80" y="105" width="10" height="10" as="geometry"/>
                </mxCell>
                <mxCell id="385" value="" style="verticalLabelPosition=bottom;verticalAlign=top;html=1;shape=mxgraph.basic.star;" vertex="1" parent="377">
                    <mxGeometry x="90" y="105" width="10" height="10" as="geometry"/>
                </mxCell>
                <mxCell id="386" value="" style="group" vertex="1" connectable="0" parent="1">
                    <mxGeometry x="835" y="1830" width="100" height="120" as="geometry"/>
                </mxCell>
                <mxCell id="387" value="" style="sketch=0;outlineConnect=0;fontColor=#232F3E;gradientColor=none;fillColor=#ED7100;strokeColor=none;dashed=0;verticalLabelPosition=bottom;verticalAlign=top;align=center;html=1;fontSize=12;fontStyle=0;aspect=fixed;pointerEvents=1;shape=mxgraph.aws4.container_registry_image;" vertex="1" parent="386">
                    <mxGeometry x="10" y="20" width="80" height="80" as="geometry"/>
                </mxCell>
                <mxCell id="388" value="Name" style="text;html=1;align=center;verticalAlign=middle;whiteSpace=wrap;rounded=0;" vertex="1" parent="386">
                    <mxGeometry x="10" width="80" height="20" as="geometry"/>
                </mxCell>
                <mxCell id="389" value="Duration" style="text;html=1;align=center;verticalAlign=middle;whiteSpace=wrap;rounded=0;" vertex="1" parent="386">
                    <mxGeometry y="100" width="40" height="20" as="geometry"/>
                </mxCell>
                <mxCell id="390" value="" style="verticalLabelPosition=bottom;verticalAlign=top;html=1;shape=mxgraph.basic.star;" vertex="1" parent="386">
                    <mxGeometry x="50" y="105" width="10" height="10" as="geometry"/>
                </mxCell>
                <mxCell id="391" value="" style="verticalLabelPosition=bottom;verticalAlign=top;html=1;shape=mxgraph.basic.star;" vertex="1" parent="386">
                    <mxGeometry x="60" y="105" width="10" height="10" as="geometry"/>
                </mxCell>
                <mxCell id="392" value="" style="verticalLabelPosition=bottom;verticalAlign=top;html=1;shape=mxgraph.basic.star;" vertex="1" parent="386">
                    <mxGeometry x="70" y="105" width="10" height="10" as="geometry"/>
                </mxCell>
                <mxCell id="393" value="" style="verticalLabelPosition=bottom;verticalAlign=top;html=1;shape=mxgraph.basic.star;" vertex="1" parent="386">
                    <mxGeometry x="80" y="105" width="10" height="10" as="geometry"/>
                </mxCell>
                <mxCell id="394" value="" style="verticalLabelPosition=bottom;verticalAlign=top;html=1;shape=mxgraph.basic.star;" vertex="1" parent="386">
                    <mxGeometry x="90" y="105" width="10" height="10" as="geometry"/>
                </mxCell>
                <mxCell id="395" value="" style="group" vertex="1" connectable="0" parent="1">
                    <mxGeometry x="835" y="1710" width="100" height="120" as="geometry"/>
                </mxCell>
                <mxCell id="396" value="" style="sketch=0;outlineConnect=0;fontColor=#232F3E;gradientColor=none;fillColor=#ED7100;strokeColor=none;dashed=0;verticalLabelPosition=bottom;verticalAlign=top;align=center;html=1;fontSize=12;fontStyle=0;aspect=fixed;pointerEvents=1;shape=mxgraph.aws4.container_registry_image;" vertex="1" parent="395">
                    <mxGeometry x="10" y="20" width="80" height="80" as="geometry"/>
                </mxCell>
                <mxCell id="397" value="Name" style="text;html=1;align=center;verticalAlign=middle;whiteSpace=wrap;rounded=0;" vertex="1" parent="395">
                    <mxGeometry x="10" width="80" height="20" as="geometry"/>
                </mxCell>
                <mxCell id="398" value="Duration" style="text;html=1;align=center;verticalAlign=middle;whiteSpace=wrap;rounded=0;" vertex="1" parent="395">
                    <mxGeometry y="100" width="40" height="20" as="geometry"/>
                </mxCell>
                <mxCell id="399" value="" style="verticalLabelPosition=bottom;verticalAlign=top;html=1;shape=mxgraph.basic.star;" vertex="1" parent="395">
                    <mxGeometry x="50" y="105" width="10" height="10" as="geometry"/>
                </mxCell>
                <mxCell id="400" value="" style="verticalLabelPosition=bottom;verticalAlign=top;html=1;shape=mxgraph.basic.star;" vertex="1" parent="395">
                    <mxGeometry x="60" y="105" width="10" height="10" as="geometry"/>
                </mxCell>
                <mxCell id="401" value="" style="verticalLabelPosition=bottom;verticalAlign=top;html=1;shape=mxgraph.basic.star;" vertex="1" parent="395">
                    <mxGeometry x="70" y="105" width="10" height="10" as="geometry"/>
                </mxCell>
                <mxCell id="402" value="" style="verticalLabelPosition=bottom;verticalAlign=top;html=1;shape=mxgraph.basic.star;" vertex="1" parent="395">
                    <mxGeometry x="80" y="105" width="10" height="10" as="geometry"/>
                </mxCell>
                <mxCell id="403" value="" style="verticalLabelPosition=bottom;verticalAlign=top;html=1;shape=mxgraph.basic.star;" vertex="1" parent="395">
                    <mxGeometry x="90" y="105" width="10" height="10" as="geometry"/>
                </mxCell>
                <mxCell id="404" value="" style="group" vertex="1" connectable="0" parent="1">
                    <mxGeometry x="950" y="1710" width="100" height="120" as="geometry"/>
                </mxCell>
                <mxCell id="405" value="" style="sketch=0;outlineConnect=0;fontColor=#232F3E;gradientColor=none;fillColor=#ED7100;strokeColor=none;dashed=0;verticalLabelPosition=bottom;verticalAlign=top;align=center;html=1;fontSize=12;fontStyle=0;aspect=fixed;pointerEvents=1;shape=mxgraph.aws4.container_registry_image;" vertex="1" parent="404">
                    <mxGeometry x="10" y="20" width="80" height="80" as="geometry"/>
                </mxCell>
                <mxCell id="406" value="Name" style="text;html=1;align=center;verticalAlign=middle;whiteSpace=wrap;rounded=0;" vertex="1" parent="404">
                    <mxGeometry x="10" width="80" height="20" as="geometry"/>
                </mxCell>
                <mxCell id="407" value="Duration" style="text;html=1;align=center;verticalAlign=middle;whiteSpace=wrap;rounded=0;" vertex="1" parent="404">
                    <mxGeometry y="100" width="40" height="20" as="geometry"/>
                </mxCell>
                <mxCell id="408" value="" style="verticalLabelPosition=bottom;verticalAlign=top;html=1;shape=mxgraph.basic.star;" vertex="1" parent="404">
                    <mxGeometry x="50" y="105" width="10" height="10" as="geometry"/>
                </mxCell>
                <mxCell id="409" value="" style="verticalLabelPosition=bottom;verticalAlign=top;html=1;shape=mxgraph.basic.star;" vertex="1" parent="404">
                    <mxGeometry x="60" y="105" width="10" height="10" as="geometry"/>
                </mxCell>
                <mxCell id="410" value="" style="verticalLabelPosition=bottom;verticalAlign=top;html=1;shape=mxgraph.basic.star;" vertex="1" parent="404">
                    <mxGeometry x="70" y="105" width="10" height="10" as="geometry"/>
                </mxCell>
                <mxCell id="411" value="" style="verticalLabelPosition=bottom;verticalAlign=top;html=1;shape=mxgraph.basic.star;" vertex="1" parent="404">
                    <mxGeometry x="80" y="105" width="10" height="10" as="geometry"/>
                </mxCell>
                <mxCell id="412" value="" style="verticalLabelPosition=bottom;verticalAlign=top;html=1;shape=mxgraph.basic.star;" vertex="1" parent="404">
                    <mxGeometry x="90" y="105" width="10" height="10" as="geometry"/>
                </mxCell>
                <mxCell id="413" value="" style="group" vertex="1" connectable="0" parent="1">
                    <mxGeometry x="950" y="1830" width="100" height="120" as="geometry"/>
                </mxCell>
                <mxCell id="414" value="" style="sketch=0;outlineConnect=0;fontColor=#232F3E;gradientColor=none;fillColor=#ED7100;strokeColor=none;dashed=0;verticalLabelPosition=bottom;verticalAlign=top;align=center;html=1;fontSize=12;fontStyle=0;aspect=fixed;pointerEvents=1;shape=mxgraph.aws4.container_registry_image;" vertex="1" parent="413">
                    <mxGeometry x="10" y="20" width="80" height="80" as="geometry"/>
                </mxCell>
                <mxCell id="415" value="Name" style="text;html=1;align=center;verticalAlign=middle;whiteSpace=wrap;rounded=0;" vertex="1" parent="413">
                    <mxGeometry x="10" width="80" height="20" as="geometry"/>
                </mxCell>
                <mxCell id="416" value="Duration" style="text;html=1;align=center;verticalAlign=middle;whiteSpace=wrap;rounded=0;" vertex="1" parent="413">
                    <mxGeometry y="100" width="40" height="20" as="geometry"/>
                </mxCell>
                <mxCell id="417" value="" style="verticalLabelPosition=bottom;verticalAlign=top;html=1;shape=mxgraph.basic.star;" vertex="1" parent="413">
                    <mxGeometry x="50" y="105" width="10" height="10" as="geometry"/>
                </mxCell>
                <mxCell id="418" value="" style="verticalLabelPosition=bottom;verticalAlign=top;html=1;shape=mxgraph.basic.star;" vertex="1" parent="413">
                    <mxGeometry x="60" y="105" width="10" height="10" as="geometry"/>
                </mxCell>
                <mxCell id="419" value="" style="verticalLabelPosition=bottom;verticalAlign=top;html=1;shape=mxgraph.basic.star;" vertex="1" parent="413">
                    <mxGeometry x="70" y="105" width="10" height="10" as="geometry"/>
                </mxCell>
                <mxCell id="420" value="" style="verticalLabelPosition=bottom;verticalAlign=top;html=1;shape=mxgraph.basic.star;" vertex="1" parent="413">
                    <mxGeometry x="80" y="105" width="10" height="10" as="geometry"/>
                </mxCell>
                <mxCell id="421" value="" style="verticalLabelPosition=bottom;verticalAlign=top;html=1;shape=mxgraph.basic.star;" vertex="1" parent="413">
                    <mxGeometry x="90" y="105" width="10" height="10" as="geometry"/>
                </mxCell>
                <mxCell id="422" value="" style="group" vertex="1" connectable="0" parent="1">
                    <mxGeometry x="720" y="1710" width="100" height="120" as="geometry"/>
                </mxCell>
                <mxCell id="423" value="" style="sketch=0;outlineConnect=0;fontColor=#232F3E;gradientColor=none;fillColor=#ED7100;strokeColor=none;dashed=0;verticalLabelPosition=bottom;verticalAlign=top;align=center;html=1;fontSize=12;fontStyle=0;aspect=fixed;pointerEvents=1;shape=mxgraph.aws4.container_registry_image;" vertex="1" parent="422">
                    <mxGeometry x="10" y="20" width="80" height="80" as="geometry"/>
                </mxCell>
                <mxCell id="424" value="Name" style="text;html=1;align=center;verticalAlign=middle;whiteSpace=wrap;rounded=0;" vertex="1" parent="422">
                    <mxGeometry x="10" width="80" height="20" as="geometry"/>
                </mxCell>
                <mxCell id="425" value="Duration" style="text;html=1;align=center;verticalAlign=middle;whiteSpace=wrap;rounded=0;" vertex="1" parent="422">
                    <mxGeometry y="100" width="40" height="20" as="geometry"/>
                </mxCell>
                <mxCell id="426" value="" style="verticalLabelPosition=bottom;verticalAlign=top;html=1;shape=mxgraph.basic.star;" vertex="1" parent="422">
                    <mxGeometry x="50" y="105" width="10" height="10" as="geometry"/>
                </mxCell>
                <mxCell id="427" value="" style="verticalLabelPosition=bottom;verticalAlign=top;html=1;shape=mxgraph.basic.star;" vertex="1" parent="422">
                    <mxGeometry x="60" y="105" width="10" height="10" as="geometry"/>
                </mxCell>
                <mxCell id="428" value="" style="verticalLabelPosition=bottom;verticalAlign=top;html=1;shape=mxgraph.basic.star;" vertex="1" parent="422">
                    <mxGeometry x="70" y="105" width="10" height="10" as="geometry"/>
                </mxCell>
                <mxCell id="429" value="" style="verticalLabelPosition=bottom;verticalAlign=top;html=1;shape=mxgraph.basic.star;" vertex="1" parent="422">
                    <mxGeometry x="80" y="105" width="10" height="10" as="geometry"/>
                </mxCell>
                <mxCell id="430" value="" style="verticalLabelPosition=bottom;verticalAlign=top;html=1;shape=mxgraph.basic.star;" vertex="1" parent="422">
                    <mxGeometry x="90" y="105" width="10" height="10" as="geometry"/>
                </mxCell>
                <mxCell id="431" value="" style="group" vertex="1" connectable="0" parent="1">
                    <mxGeometry x="605" y="1710" width="100" height="120" as="geometry"/>
                </mxCell>
                <mxCell id="432" value="" style="sketch=0;outlineConnect=0;fontColor=#232F3E;gradientColor=none;fillColor=#ED7100;strokeColor=none;dashed=0;verticalLabelPosition=bottom;verticalAlign=top;align=center;html=1;fontSize=12;fontStyle=0;aspect=fixed;pointerEvents=1;shape=mxgraph.aws4.container_registry_image;" vertex="1" parent="431">
                    <mxGeometry x="10" y="20" width="80" height="80" as="geometry"/>
                </mxCell>
                <mxCell id="433" value="Name" style="text;html=1;align=center;verticalAlign=middle;whiteSpace=wrap;rounded=0;" vertex="1" parent="431">
                    <mxGeometry x="10" width="80" height="20" as="geometry"/>
                </mxCell>
                <mxCell id="434" value="Duration" style="text;html=1;align=center;verticalAlign=middle;whiteSpace=wrap;rounded=0;" vertex="1" parent="431">
                    <mxGeometry y="100" width="40" height="20" as="geometry"/>
                </mxCell>
                <mxCell id="435" value="" style="verticalLabelPosition=bottom;verticalAlign=top;html=1;shape=mxgraph.basic.star;" vertex="1" parent="431">
                    <mxGeometry x="50" y="105" width="10" height="10" as="geometry"/>
                </mxCell>
                <mxCell id="436" value="" style="verticalLabelPosition=bottom;verticalAlign=top;html=1;shape=mxgraph.basic.star;" vertex="1" parent="431">
                    <mxGeometry x="60" y="105" width="10" height="10" as="geometry"/>
                </mxCell>
                <mxCell id="437" value="" style="verticalLabelPosition=bottom;verticalAlign=top;html=1;shape=mxgraph.basic.star;" vertex="1" parent="431">
                    <mxGeometry x="70" y="105" width="10" height="10" as="geometry"/>
                </mxCell>
                <mxCell id="438" value="" style="verticalLabelPosition=bottom;verticalAlign=top;html=1;shape=mxgraph.basic.star;" vertex="1" parent="431">
                    <mxGeometry x="80" y="105" width="10" height="10" as="geometry"/>
                </mxCell>
                <mxCell id="439" value="" style="verticalLabelPosition=bottom;verticalAlign=top;html=1;shape=mxgraph.basic.star;" vertex="1" parent="431">
                    <mxGeometry x="90" y="105" width="10" height="10" as="geometry"/>
                </mxCell>
                <mxCell id="440" value="" style="group" vertex="1" connectable="0" parent="1">
                    <mxGeometry x="605" y="1830" width="100" height="120" as="geometry"/>
                </mxCell>
                <mxCell id="441" value="" style="sketch=0;outlineConnect=0;fontColor=#232F3E;gradientColor=none;fillColor=#ED7100;strokeColor=none;dashed=0;verticalLabelPosition=bottom;verticalAlign=top;align=center;html=1;fontSize=12;fontStyle=0;aspect=fixed;pointerEvents=1;shape=mxgraph.aws4.container_registry_image;" vertex="1" parent="440">
                    <mxGeometry x="10" y="20" width="80" height="80" as="geometry"/>
                </mxCell>
                <mxCell id="442" value="Name" style="text;html=1;align=center;verticalAlign=middle;whiteSpace=wrap;rounded=0;" vertex="1" parent="440">
                    <mxGeometry x="10" width="80" height="20" as="geometry"/>
                </mxCell>
                <mxCell id="443" value="Duration" style="text;html=1;align=center;verticalAlign=middle;whiteSpace=wrap;rounded=0;" vertex="1" parent="440">
                    <mxGeometry y="100" width="40" height="20" as="geometry"/>
                </mxCell>
                <mxCell id="444" value="" style="verticalLabelPosition=bottom;verticalAlign=top;html=1;shape=mxgraph.basic.star;" vertex="1" parent="440">
                    <mxGeometry x="50" y="105" width="10" height="10" as="geometry"/>
                </mxCell>
                <mxCell id="445" value="" style="verticalLabelPosition=bottom;verticalAlign=top;html=1;shape=mxgraph.basic.star;" vertex="1" parent="440">
                    <mxGeometry x="60" y="105" width="10" height="10" as="geometry"/>
                </mxCell>
                <mxCell id="446" value="" style="verticalLabelPosition=bottom;verticalAlign=top;html=1;shape=mxgraph.basic.star;" vertex="1" parent="440">
                    <mxGeometry x="70" y="105" width="10" height="10" as="geometry"/>
                </mxCell>
                <mxCell id="447" value="" style="verticalLabelPosition=bottom;verticalAlign=top;html=1;shape=mxgraph.basic.star;" vertex="1" parent="440">
                    <mxGeometry x="80" y="105" width="10" height="10" as="geometry"/>
                </mxCell>
                <mxCell id="448" value="" style="verticalLabelPosition=bottom;verticalAlign=top;html=1;shape=mxgraph.basic.star;" vertex="1" parent="440">
                    <mxGeometry x="90" y="105" width="10" height="10" as="geometry"/>
                </mxCell>
                <mxCell id="449" value="" style="group" vertex="1" connectable="0" parent="1">
                    <mxGeometry x="605" y="1950" width="100" height="120" as="geometry"/>
                </mxCell>
                <mxCell id="450" value="" style="sketch=0;outlineConnect=0;fontColor=#232F3E;gradientColor=none;fillColor=#ED7100;strokeColor=none;dashed=0;verticalLabelPosition=bottom;verticalAlign=top;align=center;html=1;fontSize=12;fontStyle=0;aspect=fixed;pointerEvents=1;shape=mxgraph.aws4.container_registry_image;" vertex="1" parent="449">
                    <mxGeometry x="10" y="20" width="80" height="80" as="geometry"/>
                </mxCell>
                <mxCell id="451" value="Name" style="text;html=1;align=center;verticalAlign=middle;whiteSpace=wrap;rounded=0;" vertex="1" parent="449">
                    <mxGeometry x="10" width="80" height="20" as="geometry"/>
                </mxCell>
                <mxCell id="452" value="Duration" style="text;html=1;align=center;verticalAlign=middle;whiteSpace=wrap;rounded=0;" vertex="1" parent="449">
                    <mxGeometry y="100" width="40" height="20" as="geometry"/>
                </mxCell>
                <mxCell id="453" value="" style="verticalLabelPosition=bottom;verticalAlign=top;html=1;shape=mxgraph.basic.star;" vertex="1" parent="449">
                    <mxGeometry x="50" y="105" width="10" height="10" as="geometry"/>
                </mxCell>
                <mxCell id="454" value="" style="verticalLabelPosition=bottom;verticalAlign=top;html=1;shape=mxgraph.basic.star;" vertex="1" parent="449">
                    <mxGeometry x="60" y="105" width="10" height="10" as="geometry"/>
                </mxCell>
                <mxCell id="455" value="" style="verticalLabelPosition=bottom;verticalAlign=top;html=1;shape=mxgraph.basic.star;" vertex="1" parent="449">
                    <mxGeometry x="70" y="105" width="10" height="10" as="geometry"/>
                </mxCell>
                <mxCell id="456" value="" style="verticalLabelPosition=bottom;verticalAlign=top;html=1;shape=mxgraph.basic.star;" vertex="1" parent="449">
                    <mxGeometry x="80" y="105" width="10" height="10" as="geometry"/>
                </mxCell>
                <mxCell id="457" value="" style="verticalLabelPosition=bottom;verticalAlign=top;html=1;shape=mxgraph.basic.star;" vertex="1" parent="449">
                    <mxGeometry x="90" y="105" width="10" height="10" as="geometry"/>
                </mxCell>
                <mxCell id="458" value="" style="group" vertex="1" connectable="0" parent="1">
                    <mxGeometry x="720" y="1950" width="100" height="120" as="geometry"/>
                </mxCell>
                <mxCell id="459" value="" style="sketch=0;outlineConnect=0;fontColor=#232F3E;gradientColor=none;fillColor=#ED7100;strokeColor=none;dashed=0;verticalLabelPosition=bottom;verticalAlign=top;align=center;html=1;fontSize=12;fontStyle=0;aspect=fixed;pointerEvents=1;shape=mxgraph.aws4.container_registry_image;" vertex="1" parent="458">
                    <mxGeometry x="10" y="20" width="80" height="80" as="geometry"/>
                </mxCell>
                <mxCell id="460" value="Name" style="text;html=1;align=center;verticalAlign=middle;whiteSpace=wrap;rounded=0;" vertex="1" parent="458">
                    <mxGeometry x="10" width="80" height="20" as="geometry"/>
                </mxCell>
                <mxCell id="461" value="Duration" style="text;html=1;align=center;verticalAlign=middle;whiteSpace=wrap;rounded=0;" vertex="1" parent="458">
                    <mxGeometry y="100" width="40" height="20" as="geometry"/>
                </mxCell>
                <mxCell id="462" value="" style="verticalLabelPosition=bottom;verticalAlign=top;html=1;shape=mxgraph.basic.star;" vertex="1" parent="458">
                    <mxGeometry x="50" y="105" width="10" height="10" as="geometry"/>
                </mxCell>
                <mxCell id="463" value="" style="verticalLabelPosition=bottom;verticalAlign=top;html=1;shape=mxgraph.basic.star;" vertex="1" parent="458">
                    <mxGeometry x="60" y="105" width="10" height="10" as="geometry"/>
                </mxCell>
                <mxCell id="464" value="" style="verticalLabelPosition=bottom;verticalAlign=top;html=1;shape=mxgraph.basic.star;" vertex="1" parent="458">
                    <mxGeometry x="70" y="105" width="10" height="10" as="geometry"/>
                </mxCell>
                <mxCell id="465" value="" style="verticalLabelPosition=bottom;verticalAlign=top;html=1;shape=mxgraph.basic.star;" vertex="1" parent="458">
                    <mxGeometry x="80" y="105" width="10" height="10" as="geometry"/>
                </mxCell>
                <mxCell id="466" value="" style="verticalLabelPosition=bottom;verticalAlign=top;html=1;shape=mxgraph.basic.star;" vertex="1" parent="458">
                    <mxGeometry x="90" y="105" width="10" height="10" as="geometry"/>
                </mxCell>
                <mxCell id="467" value="" style="group" vertex="1" connectable="0" parent="1">
                    <mxGeometry x="720" y="1830" width="100" height="120" as="geometry"/>
                </mxCell>
                <mxCell id="468" value="" style="sketch=0;outlineConnect=0;fontColor=#232F3E;gradientColor=none;fillColor=#ED7100;strokeColor=none;dashed=0;verticalLabelPosition=bottom;verticalAlign=top;align=center;html=1;fontSize=12;fontStyle=0;aspect=fixed;pointerEvents=1;shape=mxgraph.aws4.container_registry_image;" vertex="1" parent="467">
                    <mxGeometry x="10" y="20" width="80" height="80" as="geometry"/>
                </mxCell>
                <mxCell id="469" value="Name" style="text;html=1;align=center;verticalAlign=middle;whiteSpace=wrap;rounded=0;" vertex="1" parent="467">
                    <mxGeometry x="10" width="80" height="20" as="geometry"/>
                </mxCell>
                <mxCell id="470" value="Duration" style="text;html=1;align=center;verticalAlign=middle;whiteSpace=wrap;rounded=0;" vertex="1" parent="467">
                    <mxGeometry y="100" width="40" height="20" as="geometry"/>
                </mxCell>
                <mxCell id="471" value="" style="verticalLabelPosition=bottom;verticalAlign=top;html=1;shape=mxgraph.basic.star;" vertex="1" parent="467">
                    <mxGeometry x="50" y="105" width="10" height="10" as="geometry"/>
                </mxCell>
                <mxCell id="472" value="" style="verticalLabelPosition=bottom;verticalAlign=top;html=1;shape=mxgraph.basic.star;" vertex="1" parent="467">
                    <mxGeometry x="60" y="105" width="10" height="10" as="geometry"/>
                </mxCell>
                <mxCell id="473" value="" style="verticalLabelPosition=bottom;verticalAlign=top;html=1;shape=mxgraph.basic.star;" vertex="1" parent="467">
                    <mxGeometry x="70" y="105" width="10" height="10" as="geometry"/>
                </mxCell>
                <mxCell id="474" value="" style="verticalLabelPosition=bottom;verticalAlign=top;html=1;shape=mxgraph.basic.star;" vertex="1" parent="467">
                    <mxGeometry x="80" y="105" width="10" height="10" as="geometry"/>
                </mxCell>
                <mxCell id="475" value="" style="verticalLabelPosition=bottom;verticalAlign=top;html=1;shape=mxgraph.basic.star;" vertex="1" parent="467">
                    <mxGeometry x="90" y="105" width="10" height="10" as="geometry"/>
                </mxCell>
                <mxCell id="485" value="" style="group" vertex="1" connectable="0" parent="1">
                    <mxGeometry x="1755" y="1950" width="100" height="120" as="geometry"/>
                </mxCell>
                <mxCell id="486" value="" style="sketch=0;outlineConnect=0;fontColor=#232F3E;gradientColor=none;fillColor=#ED7100;strokeColor=none;dashed=0;verticalLabelPosition=bottom;verticalAlign=top;align=center;html=1;fontSize=12;fontStyle=0;aspect=fixed;pointerEvents=1;shape=mxgraph.aws4.container_registry_image;" vertex="1" parent="485">
                    <mxGeometry x="10" y="20" width="80" height="80" as="geometry"/>
                </mxCell>
                <mxCell id="487" value="Name" style="text;html=1;align=center;verticalAlign=middle;whiteSpace=wrap;rounded=0;" vertex="1" parent="485">
                    <mxGeometry x="10" width="80" height="20" as="geometry"/>
                </mxCell>
                <mxCell id="488" value="Duration" style="text;html=1;align=center;verticalAlign=middle;whiteSpace=wrap;rounded=0;" vertex="1" parent="485">
                    <mxGeometry y="100" width="40" height="20" as="geometry"/>
                </mxCell>
                <mxCell id="489" value="" style="verticalLabelPosition=bottom;verticalAlign=top;html=1;shape=mxgraph.basic.star;" vertex="1" parent="485">
                    <mxGeometry x="50" y="105" width="10" height="10" as="geometry"/>
                </mxCell>
                <mxCell id="490" value="" style="verticalLabelPosition=bottom;verticalAlign=top;html=1;shape=mxgraph.basic.star;" vertex="1" parent="485">
                    <mxGeometry x="60" y="105" width="10" height="10" as="geometry"/>
                </mxCell>
                <mxCell id="491" value="" style="verticalLabelPosition=bottom;verticalAlign=top;html=1;shape=mxgraph.basic.star;" vertex="1" parent="485">
                    <mxGeometry x="70" y="105" width="10" height="10" as="geometry"/>
                </mxCell>
                <mxCell id="492" value="" style="verticalLabelPosition=bottom;verticalAlign=top;html=1;shape=mxgraph.basic.star;" vertex="1" parent="485">
                    <mxGeometry x="80" y="105" width="10" height="10" as="geometry"/>
                </mxCell>
                <mxCell id="493" value="" style="verticalLabelPosition=bottom;verticalAlign=top;html=1;shape=mxgraph.basic.star;" vertex="1" parent="485">
                    <mxGeometry x="90" y="105" width="10" height="10" as="geometry"/>
                </mxCell>
                <mxCell id="494" value="" style="group" vertex="1" connectable="0" parent="1">
                    <mxGeometry x="1755" y="1830" width="100" height="120" as="geometry"/>
                </mxCell>
                <mxCell id="495" value="" style="sketch=0;outlineConnect=0;fontColor=#232F3E;gradientColor=none;fillColor=#ED7100;strokeColor=none;dashed=0;verticalLabelPosition=bottom;verticalAlign=top;align=center;html=1;fontSize=12;fontStyle=0;aspect=fixed;pointerEvents=1;shape=mxgraph.aws4.container_registry_image;" vertex="1" parent="494">
                    <mxGeometry x="10" y="20" width="80" height="80" as="geometry"/>
                </mxCell>
                <mxCell id="496" value="Name" style="text;html=1;align=center;verticalAlign=middle;whiteSpace=wrap;rounded=0;" vertex="1" parent="494">
                    <mxGeometry x="10" width="80" height="20" as="geometry"/>
                </mxCell>
                <mxCell id="497" value="Duration" style="text;html=1;align=center;verticalAlign=middle;whiteSpace=wrap;rounded=0;" vertex="1" parent="494">
                    <mxGeometry y="100" width="40" height="20" as="geometry"/>
                </mxCell>
                <mxCell id="498" value="" style="verticalLabelPosition=bottom;verticalAlign=top;html=1;shape=mxgraph.basic.star;" vertex="1" parent="494">
                    <mxGeometry x="50" y="105" width="10" height="10" as="geometry"/>
                </mxCell>
                <mxCell id="499" value="" style="verticalLabelPosition=bottom;verticalAlign=top;html=1;shape=mxgraph.basic.star;" vertex="1" parent="494">
                    <mxGeometry x="60" y="105" width="10" height="10" as="geometry"/>
                </mxCell>
                <mxCell id="500" value="" style="verticalLabelPosition=bottom;verticalAlign=top;html=1;shape=mxgraph.basic.star;" vertex="1" parent="494">
                    <mxGeometry x="70" y="105" width="10" height="10" as="geometry"/>
                </mxCell>
                <mxCell id="501" value="" style="verticalLabelPosition=bottom;verticalAlign=top;html=1;shape=mxgraph.basic.star;" vertex="1" parent="494">
                    <mxGeometry x="80" y="105" width="10" height="10" as="geometry"/>
                </mxCell>
                <mxCell id="502" value="" style="verticalLabelPosition=bottom;verticalAlign=top;html=1;shape=mxgraph.basic.star;" vertex="1" parent="494">
                    <mxGeometry x="90" y="105" width="10" height="10" as="geometry"/>
                </mxCell>
                <mxCell id="503" value="" style="group" vertex="1" connectable="0" parent="1">
                    <mxGeometry x="1755" y="1710" width="100" height="120" as="geometry"/>
                </mxCell>
                <mxCell id="504" value="" style="sketch=0;outlineConnect=0;fontColor=#232F3E;gradientColor=none;fillColor=#ED7100;strokeColor=none;dashed=0;verticalLabelPosition=bottom;verticalAlign=top;align=center;html=1;fontSize=12;fontStyle=0;aspect=fixed;pointerEvents=1;shape=mxgraph.aws4.container_registry_image;" vertex="1" parent="503">
                    <mxGeometry x="10" y="20" width="80" height="80" as="geometry"/>
                </mxCell>
                <mxCell id="505" value="Name" style="text;html=1;align=center;verticalAlign=middle;whiteSpace=wrap;rounded=0;" vertex="1" parent="503">
                    <mxGeometry x="10" width="80" height="20" as="geometry"/>
                </mxCell>
                <mxCell id="506" value="Duration" style="text;html=1;align=center;verticalAlign=middle;whiteSpace=wrap;rounded=0;" vertex="1" parent="503">
                    <mxGeometry y="100" width="40" height="20" as="geometry"/>
                </mxCell>
                <mxCell id="507" value="" style="verticalLabelPosition=bottom;verticalAlign=top;html=1;shape=mxgraph.basic.star;" vertex="1" parent="503">
                    <mxGeometry x="50" y="105" width="10" height="10" as="geometry"/>
                </mxCell>
                <mxCell id="508" value="" style="verticalLabelPosition=bottom;verticalAlign=top;html=1;shape=mxgraph.basic.star;" vertex="1" parent="503">
                    <mxGeometry x="60" y="105" width="10" height="10" as="geometry"/>
                </mxCell>
                <mxCell id="509" value="" style="verticalLabelPosition=bottom;verticalAlign=top;html=1;shape=mxgraph.basic.star;" vertex="1" parent="503">
                    <mxGeometry x="70" y="105" width="10" height="10" as="geometry"/>
                </mxCell>
                <mxCell id="510" value="" style="verticalLabelPosition=bottom;verticalAlign=top;html=1;shape=mxgraph.basic.star;" vertex="1" parent="503">
                    <mxGeometry x="80" y="105" width="10" height="10" as="geometry"/>
                </mxCell>
                <mxCell id="511" value="" style="verticalLabelPosition=bottom;verticalAlign=top;html=1;shape=mxgraph.basic.star;" vertex="1" parent="503">
                    <mxGeometry x="90" y="105" width="10" height="10" as="geometry"/>
                </mxCell>
                <mxCell id="530" value="" style="group" vertex="1" connectable="0" parent="1">
                    <mxGeometry x="1640" y="1710" width="100" height="120" as="geometry"/>
                </mxCell>
                <mxCell id="531" value="" style="sketch=0;outlineConnect=0;fontColor=#232F3E;gradientColor=none;fillColor=#ED7100;strokeColor=none;dashed=0;verticalLabelPosition=bottom;verticalAlign=top;align=center;html=1;fontSize=12;fontStyle=0;aspect=fixed;pointerEvents=1;shape=mxgraph.aws4.container_registry_image;" vertex="1" parent="530">
                    <mxGeometry x="10" y="20" width="80" height="80" as="geometry"/>
                </mxCell>
                <mxCell id="532" value="Name" style="text;html=1;align=center;verticalAlign=middle;whiteSpace=wrap;rounded=0;" vertex="1" parent="530">
                    <mxGeometry x="10" width="80" height="20" as="geometry"/>
                </mxCell>
                <mxCell id="533" value="Duration" style="text;html=1;align=center;verticalAlign=middle;whiteSpace=wrap;rounded=0;" vertex="1" parent="530">
                    <mxGeometry y="100" width="40" height="20" as="geometry"/>
                </mxCell>
                <mxCell id="534" value="" style="verticalLabelPosition=bottom;verticalAlign=top;html=1;shape=mxgraph.basic.star;" vertex="1" parent="530">
                    <mxGeometry x="50" y="105" width="10" height="10" as="geometry"/>
                </mxCell>
                <mxCell id="535" value="" style="verticalLabelPosition=bottom;verticalAlign=top;html=1;shape=mxgraph.basic.star;" vertex="1" parent="530">
                    <mxGeometry x="60" y="105" width="10" height="10" as="geometry"/>
                </mxCell>
                <mxCell id="536" value="" style="verticalLabelPosition=bottom;verticalAlign=top;html=1;shape=mxgraph.basic.star;" vertex="1" parent="530">
                    <mxGeometry x="70" y="105" width="10" height="10" as="geometry"/>
                </mxCell>
                <mxCell id="537" value="" style="verticalLabelPosition=bottom;verticalAlign=top;html=1;shape=mxgraph.basic.star;" vertex="1" parent="530">
                    <mxGeometry x="80" y="105" width="10" height="10" as="geometry"/>
                </mxCell>
                <mxCell id="538" value="" style="verticalLabelPosition=bottom;verticalAlign=top;html=1;shape=mxgraph.basic.star;" vertex="1" parent="530">
                    <mxGeometry x="90" y="105" width="10" height="10" as="geometry"/>
                </mxCell>
                <mxCell id="539" value="" style="group" vertex="1" connectable="0" parent="1">
                    <mxGeometry x="1525" y="1710" width="100" height="120" as="geometry"/>
                </mxCell>
                <mxCell id="540" value="" style="sketch=0;outlineConnect=0;fontColor=#232F3E;gradientColor=none;fillColor=#ED7100;strokeColor=none;dashed=0;verticalLabelPosition=bottom;verticalAlign=top;align=center;html=1;fontSize=12;fontStyle=0;aspect=fixed;pointerEvents=1;shape=mxgraph.aws4.container_registry_image;" vertex="1" parent="539">
                    <mxGeometry x="10" y="20" width="80" height="80" as="geometry"/>
                </mxCell>
                <mxCell id="541" value="Name" style="text;html=1;align=center;verticalAlign=middle;whiteSpace=wrap;rounded=0;" vertex="1" parent="539">
                    <mxGeometry x="10" width="80" height="20" as="geometry"/>
                </mxCell>
                <mxCell id="542" value="Duration" style="text;html=1;align=center;verticalAlign=middle;whiteSpace=wrap;rounded=0;" vertex="1" parent="539">
                    <mxGeometry y="100" width="40" height="20" as="geometry"/>
                </mxCell>
                <mxCell id="543" value="" style="verticalLabelPosition=bottom;verticalAlign=top;html=1;shape=mxgraph.basic.star;" vertex="1" parent="539">
                    <mxGeometry x="50" y="105" width="10" height="10" as="geometry"/>
                </mxCell>
                <mxCell id="544" value="" style="verticalLabelPosition=bottom;verticalAlign=top;html=1;shape=mxgraph.basic.star;" vertex="1" parent="539">
                    <mxGeometry x="60" y="105" width="10" height="10" as="geometry"/>
                </mxCell>
                <mxCell id="545" value="" style="verticalLabelPosition=bottom;verticalAlign=top;html=1;shape=mxgraph.basic.star;" vertex="1" parent="539">
                    <mxGeometry x="70" y="105" width="10" height="10" as="geometry"/>
                </mxCell>
                <mxCell id="546" value="" style="verticalLabelPosition=bottom;verticalAlign=top;html=1;shape=mxgraph.basic.star;" vertex="1" parent="539">
                    <mxGeometry x="80" y="105" width="10" height="10" as="geometry"/>
                </mxCell>
                <mxCell id="547" value="" style="verticalLabelPosition=bottom;verticalAlign=top;html=1;shape=mxgraph.basic.star;" vertex="1" parent="539">
                    <mxGeometry x="90" y="105" width="10" height="10" as="geometry"/>
                </mxCell>
                <mxCell id="548" value="" style="group" vertex="1" connectable="0" parent="1">
                    <mxGeometry x="1525" y="1830" width="100" height="120" as="geometry"/>
                </mxCell>
                <mxCell id="549" value="" style="sketch=0;outlineConnect=0;fontColor=#232F3E;gradientColor=none;fillColor=#ED7100;strokeColor=none;dashed=0;verticalLabelPosition=bottom;verticalAlign=top;align=center;html=1;fontSize=12;fontStyle=0;aspect=fixed;pointerEvents=1;shape=mxgraph.aws4.container_registry_image;" vertex="1" parent="548">
                    <mxGeometry x="10" y="20" width="80" height="80" as="geometry"/>
                </mxCell>
                <mxCell id="550" value="Name" style="text;html=1;align=center;verticalAlign=middle;whiteSpace=wrap;rounded=0;" vertex="1" parent="548">
                    <mxGeometry x="10" width="80" height="20" as="geometry"/>
                </mxCell>
                <mxCell id="551" value="Duration" style="text;html=1;align=center;verticalAlign=middle;whiteSpace=wrap;rounded=0;" vertex="1" parent="548">
                    <mxGeometry y="100" width="40" height="20" as="geometry"/>
                </mxCell>
                <mxCell id="552" value="" style="verticalLabelPosition=bottom;verticalAlign=top;html=1;shape=mxgraph.basic.star;" vertex="1" parent="548">
                    <mxGeometry x="50" y="105" width="10" height="10" as="geometry"/>
                </mxCell>
                <mxCell id="553" value="" style="verticalLabelPosition=bottom;verticalAlign=top;html=1;shape=mxgraph.basic.star;" vertex="1" parent="548">
                    <mxGeometry x="60" y="105" width="10" height="10" as="geometry"/>
                </mxCell>
                <mxCell id="554" value="" style="verticalLabelPosition=bottom;verticalAlign=top;html=1;shape=mxgraph.basic.star;" vertex="1" parent="548">
                    <mxGeometry x="70" y="105" width="10" height="10" as="geometry"/>
                </mxCell>
                <mxCell id="555" value="" style="verticalLabelPosition=bottom;verticalAlign=top;html=1;shape=mxgraph.basic.star;" vertex="1" parent="548">
                    <mxGeometry x="80" y="105" width="10" height="10" as="geometry"/>
                </mxCell>
                <mxCell id="556" value="" style="verticalLabelPosition=bottom;verticalAlign=top;html=1;shape=mxgraph.basic.star;" vertex="1" parent="548">
                    <mxGeometry x="90" y="105" width="10" height="10" as="geometry"/>
                </mxCell>
                <mxCell id="557" value="" style="group" vertex="1" connectable="0" parent="1">
                    <mxGeometry x="1525" y="1950" width="100" height="120" as="geometry"/>
                </mxCell>
                <mxCell id="558" value="" style="sketch=0;outlineConnect=0;fontColor=#232F3E;gradientColor=none;fillColor=#ED7100;strokeColor=none;dashed=0;verticalLabelPosition=bottom;verticalAlign=top;align=center;html=1;fontSize=12;fontStyle=0;aspect=fixed;pointerEvents=1;shape=mxgraph.aws4.container_registry_image;" vertex="1" parent="557">
                    <mxGeometry x="10" y="20" width="80" height="80" as="geometry"/>
                </mxCell>
                <mxCell id="559" value="Name" style="text;html=1;align=center;verticalAlign=middle;whiteSpace=wrap;rounded=0;" vertex="1" parent="557">
                    <mxGeometry x="10" width="80" height="20" as="geometry"/>
                </mxCell>
                <mxCell id="560" value="Duration" style="text;html=1;align=center;verticalAlign=middle;whiteSpace=wrap;rounded=0;" vertex="1" parent="557">
                    <mxGeometry y="100" width="40" height="20" as="geometry"/>
                </mxCell>
                <mxCell id="561" value="" style="verticalLabelPosition=bottom;verticalAlign=top;html=1;shape=mxgraph.basic.star;" vertex="1" parent="557">
                    <mxGeometry x="50" y="105" width="10" height="10" as="geometry"/>
                </mxCell>
                <mxCell id="562" value="" style="verticalLabelPosition=bottom;verticalAlign=top;html=1;shape=mxgraph.basic.star;" vertex="1" parent="557">
                    <mxGeometry x="60" y="105" width="10" height="10" as="geometry"/>
                </mxCell>
                <mxCell id="563" value="" style="verticalLabelPosition=bottom;verticalAlign=top;html=1;shape=mxgraph.basic.star;" vertex="1" parent="557">
                    <mxGeometry x="70" y="105" width="10" height="10" as="geometry"/>
                </mxCell>
                <mxCell id="564" value="" style="verticalLabelPosition=bottom;verticalAlign=top;html=1;shape=mxgraph.basic.star;" vertex="1" parent="557">
                    <mxGeometry x="80" y="105" width="10" height="10" as="geometry"/>
                </mxCell>
                <mxCell id="565" value="" style="verticalLabelPosition=bottom;verticalAlign=top;html=1;shape=mxgraph.basic.star;" vertex="1" parent="557">
                    <mxGeometry x="90" y="105" width="10" height="10" as="geometry"/>
                </mxCell>
                <mxCell id="566" value="" style="group" vertex="1" connectable="0" parent="1">
                    <mxGeometry x="1640" y="1950" width="100" height="120" as="geometry"/>
                </mxCell>
                <mxCell id="567" value="" style="sketch=0;outlineConnect=0;fontColor=#232F3E;gradientColor=none;fillColor=#ED7100;strokeColor=none;dashed=0;verticalLabelPosition=bottom;verticalAlign=top;align=center;html=1;fontSize=12;fontStyle=0;aspect=fixed;pointerEvents=1;shape=mxgraph.aws4.container_registry_image;" vertex="1" parent="566">
                    <mxGeometry x="10" y="20" width="80" height="80" as="geometry"/>
                </mxCell>
                <mxCell id="568" value="Name" style="text;html=1;align=center;verticalAlign=middle;whiteSpace=wrap;rounded=0;" vertex="1" parent="566">
                    <mxGeometry x="10" width="80" height="20" as="geometry"/>
                </mxCell>
                <mxCell id="569" value="Duration" style="text;html=1;align=center;verticalAlign=middle;whiteSpace=wrap;rounded=0;" vertex="1" parent="566">
                    <mxGeometry y="100" width="40" height="20" as="geometry"/>
                </mxCell>
                <mxCell id="570" value="" style="verticalLabelPosition=bottom;verticalAlign=top;html=1;shape=mxgraph.basic.star;" vertex="1" parent="566">
                    <mxGeometry x="50" y="105" width="10" height="10" as="geometry"/>
                </mxCell>
                <mxCell id="571" value="" style="verticalLabelPosition=bottom;verticalAlign=top;html=1;shape=mxgraph.basic.star;" vertex="1" parent="566">
                    <mxGeometry x="60" y="105" width="10" height="10" as="geometry"/>
                </mxCell>
                <mxCell id="572" value="" style="verticalLabelPosition=bottom;verticalAlign=top;html=1;shape=mxgraph.basic.star;" vertex="1" parent="566">
                    <mxGeometry x="70" y="105" width="10" height="10" as="geometry"/>
                </mxCell>
                <mxCell id="573" value="" style="verticalLabelPosition=bottom;verticalAlign=top;html=1;shape=mxgraph.basic.star;" vertex="1" parent="566">
                    <mxGeometry x="80" y="105" width="10" height="10" as="geometry"/>
                </mxCell>
                <mxCell id="574" value="" style="verticalLabelPosition=bottom;verticalAlign=top;html=1;shape=mxgraph.basic.star;" vertex="1" parent="566">
                    <mxGeometry x="90" y="105" width="10" height="10" as="geometry"/>
                </mxCell>
                <mxCell id="575" value="" style="group" vertex="1" connectable="0" parent="1">
                    <mxGeometry x="1640" y="1830" width="100" height="120" as="geometry"/>
                </mxCell>
                <mxCell id="576" value="" style="sketch=0;outlineConnect=0;fontColor=#232F3E;gradientColor=none;fillColor=#ED7100;strokeColor=none;dashed=0;verticalLabelPosition=bottom;verticalAlign=top;align=center;html=1;fontSize=12;fontStyle=0;aspect=fixed;pointerEvents=1;shape=mxgraph.aws4.container_registry_image;" vertex="1" parent="575">
                    <mxGeometry x="10" y="20" width="80" height="80" as="geometry"/>
                </mxCell>
                <mxCell id="577" value="Name" style="text;html=1;align=center;verticalAlign=middle;whiteSpace=wrap;rounded=0;" vertex="1" parent="575">
                    <mxGeometry x="10" width="80" height="20" as="geometry"/>
                </mxCell>
                <mxCell id="578" value="Duration" style="text;html=1;align=center;verticalAlign=middle;whiteSpace=wrap;rounded=0;" vertex="1" parent="575">
                    <mxGeometry y="100" width="40" height="20" as="geometry"/>
                </mxCell>
                <mxCell id="579" value="" style="verticalLabelPosition=bottom;verticalAlign=top;html=1;shape=mxgraph.basic.star;" vertex="1" parent="575">
                    <mxGeometry x="50" y="105" width="10" height="10" as="geometry"/>
                </mxCell>
                <mxCell id="580" value="" style="verticalLabelPosition=bottom;verticalAlign=top;html=1;shape=mxgraph.basic.star;" vertex="1" parent="575">
                    <mxGeometry x="60" y="105" width="10" height="10" as="geometry"/>
                </mxCell>
                <mxCell id="581" value="" style="verticalLabelPosition=bottom;verticalAlign=top;html=1;shape=mxgraph.basic.star;" vertex="1" parent="575">
                    <mxGeometry x="70" y="105" width="10" height="10" as="geometry"/>
                </mxCell>
                <mxCell id="582" value="" style="verticalLabelPosition=bottom;verticalAlign=top;html=1;shape=mxgraph.basic.star;" vertex="1" parent="575">
                    <mxGeometry x="80" y="105" width="10" height="10" as="geometry"/>
                </mxCell>
                <mxCell id="583" value="" style="verticalLabelPosition=bottom;verticalAlign=top;html=1;shape=mxgraph.basic.star;" vertex="1" parent="575">
                    <mxGeometry x="90" y="105" width="10" height="10" as="geometry"/>
                </mxCell>
                <mxCell id="584" value="" style="group" vertex="1" connectable="0" parent="1">
                    <mxGeometry x="1410" y="1830" width="100" height="120" as="geometry"/>
                </mxCell>
                <mxCell id="585" value="" style="sketch=0;outlineConnect=0;fontColor=#232F3E;gradientColor=none;fillColor=#ED7100;strokeColor=none;dashed=0;verticalLabelPosition=bottom;verticalAlign=top;align=center;html=1;fontSize=12;fontStyle=0;aspect=fixed;pointerEvents=1;shape=mxgraph.aws4.container_registry_image;" vertex="1" parent="584">
                    <mxGeometry x="10" y="20" width="80" height="80" as="geometry"/>
                </mxCell>
                <mxCell id="586" value="Name" style="text;html=1;align=center;verticalAlign=middle;whiteSpace=wrap;rounded=0;" vertex="1" parent="584">
                    <mxGeometry x="10" width="80" height="20" as="geometry"/>
                </mxCell>
                <mxCell id="587" value="Duration" style="text;html=1;align=center;verticalAlign=middle;whiteSpace=wrap;rounded=0;" vertex="1" parent="584">
                    <mxGeometry y="100" width="40" height="20" as="geometry"/>
                </mxCell>
                <mxCell id="588" value="" style="verticalLabelPosition=bottom;verticalAlign=top;html=1;shape=mxgraph.basic.star;" vertex="1" parent="584">
                    <mxGeometry x="50" y="105" width="10" height="10" as="geometry"/>
                </mxCell>
                <mxCell id="589" value="" style="verticalLabelPosition=bottom;verticalAlign=top;html=1;shape=mxgraph.basic.star;" vertex="1" parent="584">
                    <mxGeometry x="60" y="105" width="10" height="10" as="geometry"/>
                </mxCell>
                <mxCell id="590" value="" style="verticalLabelPosition=bottom;verticalAlign=top;html=1;shape=mxgraph.basic.star;" vertex="1" parent="584">
                    <mxGeometry x="70" y="105" width="10" height="10" as="geometry"/>
                </mxCell>
                <mxCell id="591" value="" style="verticalLabelPosition=bottom;verticalAlign=top;html=1;shape=mxgraph.basic.star;" vertex="1" parent="584">
                    <mxGeometry x="80" y="105" width="10" height="10" as="geometry"/>
                </mxCell>
                <mxCell id="592" value="" style="verticalLabelPosition=bottom;verticalAlign=top;html=1;shape=mxgraph.basic.star;" vertex="1" parent="584">
                    <mxGeometry x="90" y="105" width="10" height="10" as="geometry"/>
                </mxCell>
                <mxCell id="593" value="" style="group" vertex="1" connectable="0" parent="1">
                    <mxGeometry x="1065" y="1710" width="100" height="120" as="geometry"/>
                </mxCell>
                <mxCell id="594" value="" style="sketch=0;outlineConnect=0;fontColor=#232F3E;gradientColor=none;fillColor=#ED7100;strokeColor=none;dashed=0;verticalLabelPosition=bottom;verticalAlign=top;align=center;html=1;fontSize=12;fontStyle=0;aspect=fixed;pointerEvents=1;shape=mxgraph.aws4.container_registry_image;" vertex="1" parent="593">
                    <mxGeometry x="10" y="20" width="80" height="80" as="geometry"/>
                </mxCell>
                <mxCell id="595" value="Name" style="text;html=1;align=center;verticalAlign=middle;whiteSpace=wrap;rounded=0;" vertex="1" parent="593">
                    <mxGeometry x="10" width="80" height="20" as="geometry"/>
                </mxCell>
                <mxCell id="596" value="Duration" style="text;html=1;align=center;verticalAlign=middle;whiteSpace=wrap;rounded=0;" vertex="1" parent="593">
                    <mxGeometry y="100" width="40" height="20" as="geometry"/>
                </mxCell>
                <mxCell id="597" value="" style="verticalLabelPosition=bottom;verticalAlign=top;html=1;shape=mxgraph.basic.star;" vertex="1" parent="593">
                    <mxGeometry x="50" y="105" width="10" height="10" as="geometry"/>
                </mxCell>
                <mxCell id="598" value="" style="verticalLabelPosition=bottom;verticalAlign=top;html=1;shape=mxgraph.basic.star;" vertex="1" parent="593">
                    <mxGeometry x="60" y="105" width="10" height="10" as="geometry"/>
                </mxCell>
                <mxCell id="599" value="" style="verticalLabelPosition=bottom;verticalAlign=top;html=1;shape=mxgraph.basic.star;" vertex="1" parent="593">
                    <mxGeometry x="70" y="105" width="10" height="10" as="geometry"/>
                </mxCell>
                <mxCell id="600" value="" style="verticalLabelPosition=bottom;verticalAlign=top;html=1;shape=mxgraph.basic.star;" vertex="1" parent="593">
                    <mxGeometry x="80" y="105" width="10" height="10" as="geometry"/>
                </mxCell>
                <mxCell id="601" value="" style="verticalLabelPosition=bottom;verticalAlign=top;html=1;shape=mxgraph.basic.star;" vertex="1" parent="593">
                    <mxGeometry x="90" y="105" width="10" height="10" as="geometry"/>
                </mxCell>
                <mxCell id="602" value="" style="group" vertex="1" connectable="0" parent="1">
                    <mxGeometry x="1065" y="1830" width="100" height="120" as="geometry"/>
                </mxCell>
                <mxCell id="603" value="" style="sketch=0;outlineConnect=0;fontColor=#232F3E;gradientColor=none;fillColor=#ED7100;strokeColor=none;dashed=0;verticalLabelPosition=bottom;verticalAlign=top;align=center;html=1;fontSize=12;fontStyle=0;aspect=fixed;pointerEvents=1;shape=mxgraph.aws4.container_registry_image;" vertex="1" parent="602">
                    <mxGeometry x="10" y="20" width="80" height="80" as="geometry"/>
                </mxCell>
                <mxCell id="604" value="Name" style="text;html=1;align=center;verticalAlign=middle;whiteSpace=wrap;rounded=0;" vertex="1" parent="602">
                    <mxGeometry x="10" width="80" height="20" as="geometry"/>
                </mxCell>
                <mxCell id="605" value="Duration" style="text;html=1;align=center;verticalAlign=middle;whiteSpace=wrap;rounded=0;" vertex="1" parent="602">
                    <mxGeometry y="100" width="40" height="20" as="geometry"/>
                </mxCell>
                <mxCell id="606" value="" style="verticalLabelPosition=bottom;verticalAlign=top;html=1;shape=mxgraph.basic.star;" vertex="1" parent="602">
                    <mxGeometry x="50" y="105" width="10" height="10" as="geometry"/>
                </mxCell>
                <mxCell id="607" value="" style="verticalLabelPosition=bottom;verticalAlign=top;html=1;shape=mxgraph.basic.star;" vertex="1" parent="602">
                    <mxGeometry x="60" y="105" width="10" height="10" as="geometry"/>
                </mxCell>
                <mxCell id="608" value="" style="verticalLabelPosition=bottom;verticalAlign=top;html=1;shape=mxgraph.basic.star;" vertex="1" parent="602">
                    <mxGeometry x="70" y="105" width="10" height="10" as="geometry"/>
                </mxCell>
                <mxCell id="609" value="" style="verticalLabelPosition=bottom;verticalAlign=top;html=1;shape=mxgraph.basic.star;" vertex="1" parent="602">
                    <mxGeometry x="80" y="105" width="10" height="10" as="geometry"/>
                </mxCell>
                <mxCell id="610" value="" style="verticalLabelPosition=bottom;verticalAlign=top;html=1;shape=mxgraph.basic.star;" vertex="1" parent="602">
                    <mxGeometry x="90" y="105" width="10" height="10" as="geometry"/>
                </mxCell>
                <mxCell id="611" value="" style="group" vertex="1" connectable="0" parent="1">
                    <mxGeometry x="1065" y="1950" width="100" height="120" as="geometry"/>
                </mxCell>
                <mxCell id="612" value="" style="sketch=0;outlineConnect=0;fontColor=#232F3E;gradientColor=none;fillColor=#ED7100;strokeColor=none;dashed=0;verticalLabelPosition=bottom;verticalAlign=top;align=center;html=1;fontSize=12;fontStyle=0;aspect=fixed;pointerEvents=1;shape=mxgraph.aws4.container_registry_image;" vertex="1" parent="611">
                    <mxGeometry x="10" y="20" width="80" height="80" as="geometry"/>
                </mxCell>
                <mxCell id="613" value="Name" style="text;html=1;align=center;verticalAlign=middle;whiteSpace=wrap;rounded=0;" vertex="1" parent="611">
                    <mxGeometry x="10" width="80" height="20" as="geometry"/>
                </mxCell>
                <mxCell id="614" value="Duration" style="text;html=1;align=center;verticalAlign=middle;whiteSpace=wrap;rounded=0;" vertex="1" parent="611">
                    <mxGeometry y="100" width="40" height="20" as="geometry"/>
                </mxCell>
                <mxCell id="615" value="" style="verticalLabelPosition=bottom;verticalAlign=top;html=1;shape=mxgraph.basic.star;" vertex="1" parent="611">
                    <mxGeometry x="50" y="105" width="10" height="10" as="geometry"/>
                </mxCell>
                <mxCell id="616" value="" style="verticalLabelPosition=bottom;verticalAlign=top;html=1;shape=mxgraph.basic.star;" vertex="1" parent="611">
                    <mxGeometry x="60" y="105" width="10" height="10" as="geometry"/>
                </mxCell>
                <mxCell id="617" value="" style="verticalLabelPosition=bottom;verticalAlign=top;html=1;shape=mxgraph.basic.star;" vertex="1" parent="611">
                    <mxGeometry x="70" y="105" width="10" height="10" as="geometry"/>
                </mxCell>
                <mxCell id="618" value="" style="verticalLabelPosition=bottom;verticalAlign=top;html=1;shape=mxgraph.basic.star;" vertex="1" parent="611">
                    <mxGeometry x="80" y="105" width="10" height="10" as="geometry"/>
                </mxCell>
                <mxCell id="619" value="" style="verticalLabelPosition=bottom;verticalAlign=top;html=1;shape=mxgraph.basic.star;" vertex="1" parent="611">
                    <mxGeometry x="90" y="105" width="10" height="10" as="geometry"/>
                </mxCell>
                <mxCell id="620" value="" style="group" vertex="1" connectable="0" parent="1">
                    <mxGeometry x="1180" y="1950" width="100" height="120" as="geometry"/>
                </mxCell>
                <mxCell id="621" value="" style="sketch=0;outlineConnect=0;fontColor=#232F3E;gradientColor=none;fillColor=#ED7100;strokeColor=none;dashed=0;verticalLabelPosition=bottom;verticalAlign=top;align=center;html=1;fontSize=12;fontStyle=0;aspect=fixed;pointerEvents=1;shape=mxgraph.aws4.container_registry_image;" vertex="1" parent="620">
                    <mxGeometry x="10" y="20" width="80" height="80" as="geometry"/>
                </mxCell>
                <mxCell id="622" value="Name" style="text;html=1;align=center;verticalAlign=middle;whiteSpace=wrap;rounded=0;" vertex="1" parent="620">
                    <mxGeometry x="10" width="80" height="20" as="geometry"/>
                </mxCell>
                <mxCell id="623" value="Duration" style="text;html=1;align=center;verticalAlign=middle;whiteSpace=wrap;rounded=0;" vertex="1" parent="620">
                    <mxGeometry y="100" width="40" height="20" as="geometry"/>
                </mxCell>
                <mxCell id="624" value="" style="verticalLabelPosition=bottom;verticalAlign=top;html=1;shape=mxgraph.basic.star;" vertex="1" parent="620">
                    <mxGeometry x="50" y="105" width="10" height="10" as="geometry"/>
                </mxCell>
                <mxCell id="625" value="" style="verticalLabelPosition=bottom;verticalAlign=top;html=1;shape=mxgraph.basic.star;" vertex="1" parent="620">
                    <mxGeometry x="60" y="105" width="10" height="10" as="geometry"/>
                </mxCell>
                <mxCell id="626" value="" style="verticalLabelPosition=bottom;verticalAlign=top;html=1;shape=mxgraph.basic.star;" vertex="1" parent="620">
                    <mxGeometry x="70" y="105" width="10" height="10" as="geometry"/>
                </mxCell>
                <mxCell id="627" value="" style="verticalLabelPosition=bottom;verticalAlign=top;html=1;shape=mxgraph.basic.star;" vertex="1" parent="620">
                    <mxGeometry x="80" y="105" width="10" height="10" as="geometry"/>
                </mxCell>
                <mxCell id="628" value="" style="verticalLabelPosition=bottom;verticalAlign=top;html=1;shape=mxgraph.basic.star;" vertex="1" parent="620">
                    <mxGeometry x="90" y="105" width="10" height="10" as="geometry"/>
                </mxCell>
                <mxCell id="629" value="" style="group" vertex="1" connectable="0" parent="1">
                    <mxGeometry x="1180" y="1830" width="100" height="120" as="geometry"/>
                </mxCell>
                <mxCell id="630" value="" style="sketch=0;outlineConnect=0;fontColor=#232F3E;gradientColor=none;fillColor=#ED7100;strokeColor=none;dashed=0;verticalLabelPosition=bottom;verticalAlign=top;align=center;html=1;fontSize=12;fontStyle=0;aspect=fixed;pointerEvents=1;shape=mxgraph.aws4.container_registry_image;" vertex="1" parent="629">
                    <mxGeometry x="10" y="20" width="80" height="80" as="geometry"/>
                </mxCell>
                <mxCell id="631" value="Name" style="text;html=1;align=center;verticalAlign=middle;whiteSpace=wrap;rounded=0;" vertex="1" parent="629">
                    <mxGeometry x="10" width="80" height="20" as="geometry"/>
                </mxCell>
                <mxCell id="632" value="Duration" style="text;html=1;align=center;verticalAlign=middle;whiteSpace=wrap;rounded=0;" vertex="1" parent="629">
                    <mxGeometry y="100" width="40" height="20" as="geometry"/>
                </mxCell>
                <mxCell id="633" value="" style="verticalLabelPosition=bottom;verticalAlign=top;html=1;shape=mxgraph.basic.star;" vertex="1" parent="629">
                    <mxGeometry x="50" y="105" width="10" height="10" as="geometry"/>
                </mxCell>
                <mxCell id="634" value="" style="verticalLabelPosition=bottom;verticalAlign=top;html=1;shape=mxgraph.basic.star;" vertex="1" parent="629">
                    <mxGeometry x="60" y="105" width="10" height="10" as="geometry"/>
                </mxCell>
                <mxCell id="635" value="" style="verticalLabelPosition=bottom;verticalAlign=top;html=1;shape=mxgraph.basic.star;" vertex="1" parent="629">
                    <mxGeometry x="70" y="105" width="10" height="10" as="geometry"/>
                </mxCell>
                <mxCell id="636" value="" style="verticalLabelPosition=bottom;verticalAlign=top;html=1;shape=mxgraph.basic.star;" vertex="1" parent="629">
                    <mxGeometry x="80" y="105" width="10" height="10" as="geometry"/>
                </mxCell>
                <mxCell id="637" value="" style="verticalLabelPosition=bottom;verticalAlign=top;html=1;shape=mxgraph.basic.star;" vertex="1" parent="629">
                    <mxGeometry x="90" y="105" width="10" height="10" as="geometry"/>
                </mxCell>
                <mxCell id="638" value="" style="group" vertex="1" connectable="0" parent="1">
                    <mxGeometry x="1180" y="1710" width="100" height="120" as="geometry"/>
                </mxCell>
                <mxCell id="639" value="" style="sketch=0;outlineConnect=0;fontColor=#232F3E;gradientColor=none;fillColor=#ED7100;strokeColor=none;dashed=0;verticalLabelPosition=bottom;verticalAlign=top;align=center;html=1;fontSize=12;fontStyle=0;aspect=fixed;pointerEvents=1;shape=mxgraph.aws4.container_registry_image;" vertex="1" parent="638">
                    <mxGeometry x="10" y="20" width="80" height="80" as="geometry"/>
                </mxCell>
                <mxCell id="640" value="Name" style="text;html=1;align=center;verticalAlign=middle;whiteSpace=wrap;rounded=0;" vertex="1" parent="638">
                    <mxGeometry x="10" width="80" height="20" as="geometry"/>
                </mxCell>
                <mxCell id="641" value="Duration" style="text;html=1;align=center;verticalAlign=middle;whiteSpace=wrap;rounded=0;" vertex="1" parent="638">
                    <mxGeometry y="100" width="40" height="20" as="geometry"/>
                </mxCell>
                <mxCell id="642" value="" style="verticalLabelPosition=bottom;verticalAlign=top;html=1;shape=mxgraph.basic.star;" vertex="1" parent="638">
                    <mxGeometry x="50" y="105" width="10" height="10" as="geometry"/>
                </mxCell>
                <mxCell id="643" value="" style="verticalLabelPosition=bottom;verticalAlign=top;html=1;shape=mxgraph.basic.star;" vertex="1" parent="638">
                    <mxGeometry x="60" y="105" width="10" height="10" as="geometry"/>
                </mxCell>
                <mxCell id="644" value="" style="verticalLabelPosition=bottom;verticalAlign=top;html=1;shape=mxgraph.basic.star;" vertex="1" parent="638">
                    <mxGeometry x="70" y="105" width="10" height="10" as="geometry"/>
                </mxCell>
                <mxCell id="645" value="" style="verticalLabelPosition=bottom;verticalAlign=top;html=1;shape=mxgraph.basic.star;" vertex="1" parent="638">
                    <mxGeometry x="80" y="105" width="10" height="10" as="geometry"/>
                </mxCell>
                <mxCell id="646" value="" style="verticalLabelPosition=bottom;verticalAlign=top;html=1;shape=mxgraph.basic.star;" vertex="1" parent="638">
                    <mxGeometry x="90" y="105" width="10" height="10" as="geometry"/>
                </mxCell>
                <mxCell id="647" value="" style="group" vertex="1" connectable="0" parent="1">
                    <mxGeometry x="1295" y="1710" width="100" height="120" as="geometry"/>
                </mxCell>
                <mxCell id="648" value="" style="sketch=0;outlineConnect=0;fontColor=#232F3E;gradientColor=none;fillColor=#ED7100;strokeColor=none;dashed=0;verticalLabelPosition=bottom;verticalAlign=top;align=center;html=1;fontSize=12;fontStyle=0;aspect=fixed;pointerEvents=1;shape=mxgraph.aws4.container_registry_image;" vertex="1" parent="647">
                    <mxGeometry x="10" y="20" width="80" height="80" as="geometry"/>
                </mxCell>
                <mxCell id="649" value="Name" style="text;html=1;align=center;verticalAlign=middle;whiteSpace=wrap;rounded=0;" vertex="1" parent="647">
                    <mxGeometry x="10" width="80" height="20" as="geometry"/>
                </mxCell>
                <mxCell id="650" value="Duration" style="text;html=1;align=center;verticalAlign=middle;whiteSpace=wrap;rounded=0;" vertex="1" parent="647">
                    <mxGeometry y="100" width="40" height="20" as="geometry"/>
                </mxCell>
                <mxCell id="651" value="" style="verticalLabelPosition=bottom;verticalAlign=top;html=1;shape=mxgraph.basic.star;" vertex="1" parent="647">
                    <mxGeometry x="50" y="105" width="10" height="10" as="geometry"/>
                </mxCell>
                <mxCell id="652" value="" style="verticalLabelPosition=bottom;verticalAlign=top;html=1;shape=mxgraph.basic.star;" vertex="1" parent="647">
                    <mxGeometry x="60" y="105" width="10" height="10" as="geometry"/>
                </mxCell>
                <mxCell id="653" value="" style="verticalLabelPosition=bottom;verticalAlign=top;html=1;shape=mxgraph.basic.star;" vertex="1" parent="647">
                    <mxGeometry x="70" y="105" width="10" height="10" as="geometry"/>
                </mxCell>
                <mxCell id="654" value="" style="verticalLabelPosition=bottom;verticalAlign=top;html=1;shape=mxgraph.basic.star;" vertex="1" parent="647">
                    <mxGeometry x="80" y="105" width="10" height="10" as="geometry"/>
                </mxCell>
                <mxCell id="655" value="" style="verticalLabelPosition=bottom;verticalAlign=top;html=1;shape=mxgraph.basic.star;" vertex="1" parent="647">
                    <mxGeometry x="90" y="105" width="10" height="10" as="geometry"/>
                </mxCell>
                <mxCell id="656" value="" style="group" vertex="1" connectable="0" parent="1">
                    <mxGeometry x="1410" y="1710" width="100" height="120" as="geometry"/>
                </mxCell>
                <mxCell id="657" value="" style="sketch=0;outlineConnect=0;fontColor=#232F3E;gradientColor=none;fillColor=#ED7100;strokeColor=none;dashed=0;verticalLabelPosition=bottom;verticalAlign=top;align=center;html=1;fontSize=12;fontStyle=0;aspect=fixed;pointerEvents=1;shape=mxgraph.aws4.container_registry_image;" vertex="1" parent="656">
                    <mxGeometry x="10" y="20" width="80" height="80" as="geometry"/>
                </mxCell>
                <mxCell id="658" value="Name" style="text;html=1;align=center;verticalAlign=middle;whiteSpace=wrap;rounded=0;" vertex="1" parent="656">
                    <mxGeometry x="10" width="80" height="20" as="geometry"/>
                </mxCell>
                <mxCell id="659" value="Duration" style="text;html=1;align=center;verticalAlign=middle;whiteSpace=wrap;rounded=0;" vertex="1" parent="656">
                    <mxGeometry y="100" width="40" height="20" as="geometry"/>
                </mxCell>
                <mxCell id="660" value="" style="verticalLabelPosition=bottom;verticalAlign=top;html=1;shape=mxgraph.basic.star;" vertex="1" parent="656">
                    <mxGeometry x="50" y="105" width="10" height="10" as="geometry"/>
                </mxCell>
                <mxCell id="661" value="" style="verticalLabelPosition=bottom;verticalAlign=top;html=1;shape=mxgraph.basic.star;" vertex="1" parent="656">
                    <mxGeometry x="60" y="105" width="10" height="10" as="geometry"/>
                </mxCell>
                <mxCell id="662" value="" style="verticalLabelPosition=bottom;verticalAlign=top;html=1;shape=mxgraph.basic.star;" vertex="1" parent="656">
                    <mxGeometry x="70" y="105" width="10" height="10" as="geometry"/>
                </mxCell>
                <mxCell id="663" value="" style="verticalLabelPosition=bottom;verticalAlign=top;html=1;shape=mxgraph.basic.star;" vertex="1" parent="656">
                    <mxGeometry x="80" y="105" width="10" height="10" as="geometry"/>
                </mxCell>
                <mxCell id="664" value="" style="verticalLabelPosition=bottom;verticalAlign=top;html=1;shape=mxgraph.basic.star;" vertex="1" parent="656">
                    <mxGeometry x="90" y="105" width="10" height="10" as="geometry"/>
                </mxCell>
                <mxCell id="665" value="" style="group" vertex="1" connectable="0" parent="1">
                    <mxGeometry x="1295" y="1830" width="100" height="120" as="geometry"/>
                </mxCell>
                <mxCell id="666" value="" style="sketch=0;outlineConnect=0;fontColor=#232F3E;gradientColor=none;fillColor=#ED7100;strokeColor=none;dashed=0;verticalLabelPosition=bottom;verticalAlign=top;align=center;html=1;fontSize=12;fontStyle=0;aspect=fixed;pointerEvents=1;shape=mxgraph.aws4.container_registry_image;" vertex="1" parent="665">
                    <mxGeometry x="10" y="20" width="80" height="80" as="geometry"/>
                </mxCell>
                <mxCell id="667" value="Name" style="text;html=1;align=center;verticalAlign=middle;whiteSpace=wrap;rounded=0;" vertex="1" parent="665">
                    <mxGeometry x="10" width="80" height="20" as="geometry"/>
                </mxCell>
                <mxCell id="668" value="Duration" style="text;html=1;align=center;verticalAlign=middle;whiteSpace=wrap;rounded=0;" vertex="1" parent="665">
                    <mxGeometry y="100" width="40" height="20" as="geometry"/>
                </mxCell>
                <mxCell id="669" value="" style="verticalLabelPosition=bottom;verticalAlign=top;html=1;shape=mxgraph.basic.star;" vertex="1" parent="665">
                    <mxGeometry x="50" y="105" width="10" height="10" as="geometry"/>
                </mxCell>
                <mxCell id="670" value="" style="verticalLabelPosition=bottom;verticalAlign=top;html=1;shape=mxgraph.basic.star;" vertex="1" parent="665">
                    <mxGeometry x="60" y="105" width="10" height="10" as="geometry"/>
                </mxCell>
                <mxCell id="671" value="" style="verticalLabelPosition=bottom;verticalAlign=top;html=1;shape=mxgraph.basic.star;" vertex="1" parent="665">
                    <mxGeometry x="70" y="105" width="10" height="10" as="geometry"/>
                </mxCell>
                <mxCell id="672" value="" style="verticalLabelPosition=bottom;verticalAlign=top;html=1;shape=mxgraph.basic.star;" vertex="1" parent="665">
                    <mxGeometry x="80" y="105" width="10" height="10" as="geometry"/>
                </mxCell>
                <mxCell id="673" value="" style="verticalLabelPosition=bottom;verticalAlign=top;html=1;shape=mxgraph.basic.star;" vertex="1" parent="665">
                    <mxGeometry x="90" y="105" width="10" height="10" as="geometry"/>
                </mxCell>
                <mxCell id="674" value="" style="group" vertex="1" connectable="0" parent="1">
                    <mxGeometry x="1295" y="1950" width="100" height="120" as="geometry"/>
                </mxCell>
                <mxCell id="675" value="" style="sketch=0;outlineConnect=0;fontColor=#232F3E;gradientColor=none;fillColor=#ED7100;strokeColor=none;dashed=0;verticalLabelPosition=bottom;verticalAlign=top;align=center;html=1;fontSize=12;fontStyle=0;aspect=fixed;pointerEvents=1;shape=mxgraph.aws4.container_registry_image;" vertex="1" parent="674">
                    <mxGeometry x="10" y="20" width="80" height="80" as="geometry"/>
                </mxCell>
                <mxCell id="676" value="Name" style="text;html=1;align=center;verticalAlign=middle;whiteSpace=wrap;rounded=0;" vertex="1" parent="674">
                    <mxGeometry x="10" width="80" height="20" as="geometry"/>
                </mxCell>
                <mxCell id="677" value="Duration" style="text;html=1;align=center;verticalAlign=middle;whiteSpace=wrap;rounded=0;" vertex="1" parent="674">
                    <mxGeometry y="100" width="40" height="20" as="geometry"/>
                </mxCell>
                <mxCell id="678" value="" style="verticalLabelPosition=bottom;verticalAlign=top;html=1;shape=mxgraph.basic.star;" vertex="1" parent="674">
                    <mxGeometry x="50" y="105" width="10" height="10" as="geometry"/>
                </mxCell>
                <mxCell id="679" value="" style="verticalLabelPosition=bottom;verticalAlign=top;html=1;shape=mxgraph.basic.star;" vertex="1" parent="674">
                    <mxGeometry x="60" y="105" width="10" height="10" as="geometry"/>
                </mxCell>
                <mxCell id="680" value="" style="verticalLabelPosition=bottom;verticalAlign=top;html=1;shape=mxgraph.basic.star;" vertex="1" parent="674">
                    <mxGeometry x="70" y="105" width="10" height="10" as="geometry"/>
                </mxCell>
                <mxCell id="681" value="" style="verticalLabelPosition=bottom;verticalAlign=top;html=1;shape=mxgraph.basic.star;" vertex="1" parent="674">
                    <mxGeometry x="80" y="105" width="10" height="10" as="geometry"/>
                </mxCell>
                <mxCell id="682" value="" style="verticalLabelPosition=bottom;verticalAlign=top;html=1;shape=mxgraph.basic.star;" vertex="1" parent="674">
                    <mxGeometry x="90" y="105" width="10" height="10" as="geometry"/>
                </mxCell>
                <mxCell id="683" value="" style="group" vertex="1" connectable="0" parent="1">
                    <mxGeometry x="1410" y="1950" width="100" height="120" as="geometry"/>
                </mxCell>
                <mxCell id="684" value="" style="sketch=0;outlineConnect=0;fontColor=#232F3E;gradientColor=none;fillColor=#ED7100;strokeColor=none;dashed=0;verticalLabelPosition=bottom;verticalAlign=top;align=center;html=1;fontSize=12;fontStyle=0;aspect=fixed;pointerEvents=1;shape=mxgraph.aws4.container_registry_image;" vertex="1" parent="683">
                    <mxGeometry x="10" y="20" width="80" height="80" as="geometry"/>
                </mxCell>
                <mxCell id="685" value="Name" style="text;html=1;align=center;verticalAlign=middle;whiteSpace=wrap;rounded=0;" vertex="1" parent="683">
                    <mxGeometry x="10" width="80" height="20" as="geometry"/>
                </mxCell>
                <mxCell id="686" value="Duration" style="text;html=1;align=center;verticalAlign=middle;whiteSpace=wrap;rounded=0;" vertex="1" parent="683">
                    <mxGeometry y="100" width="40" height="20" as="geometry"/>
                </mxCell>
                <mxCell id="687" value="" style="verticalLabelPosition=bottom;verticalAlign=top;html=1;shape=mxgraph.basic.star;" vertex="1" parent="683">
                    <mxGeometry x="50" y="105" width="10" height="10" as="geometry"/>
                </mxCell>
                <mxCell id="688" value="" style="verticalLabelPosition=bottom;verticalAlign=top;html=1;shape=mxgraph.basic.star;" vertex="1" parent="683">
                    <mxGeometry x="60" y="105" width="10" height="10" as="geometry"/>
                </mxCell>
                <mxCell id="689" value="" style="verticalLabelPosition=bottom;verticalAlign=top;html=1;shape=mxgraph.basic.star;" vertex="1" parent="683">
                    <mxGeometry x="70" y="105" width="10" height="10" as="geometry"/>
                </mxCell>
                <mxCell id="690" value="" style="verticalLabelPosition=bottom;verticalAlign=top;html=1;shape=mxgraph.basic.star;" vertex="1" parent="683">
                    <mxGeometry x="80" y="105" width="10" height="10" as="geometry"/>
                </mxCell>
                <mxCell id="691" value="" style="verticalLabelPosition=bottom;verticalAlign=top;html=1;shape=mxgraph.basic.star;" vertex="1" parent="683">
                    <mxGeometry x="90" y="105" width="10" height="10" as="geometry"/>
                </mxCell>
            </root>
        </mxGraphModel>
    </diagram>
</mxfile>
